<svg xmlns="http://www.w3.org/2000/svg" aria-roledescription="gitGraph" role="graphics-document document" viewBox="-112.390625 -19 3020.390625 206.5" style="max-width: 3020.39px; background-color: white;" width="100%" id="my-svg"><style>#my-svg{font-family:"trebuchet ms",verdana,arial,sans-serif;font-size:16px;fill:#333;}#my-svg .error-icon{fill:hsl(220.5882352941, 100%, 98.3333333333%);}#my-svg .error-text{fill:rgb(8.5000000002, 5.7500000001, 0);stroke:rgb(8.5000000002, 5.7500000001, 0);}#my-svg .edge-thickness-normal{stroke-width:1px;}#my-svg .edge-thickness-thick{stroke-width:3.5px;}#my-svg .edge-pattern-solid{stroke-dasharray:0;}#my-svg .edge-thickness-invisible{stroke-width:0;fill:none;}#my-svg .edge-pattern-dashed{stroke-dasharray:3;}#my-svg .edge-pattern-dotted{stroke-dasharray:2;}#my-svg .marker{fill:#0b0b0b;stroke:#0b0b0b;}#my-svg .marker.cross{stroke:#0b0b0b;}#my-svg svg{font-family:"trebuchet ms",verdana,arial,sans-serif;font-size:16px;}#my-svg p{margin:0;}#my-svg .commit-id,#my-svg .commit-msg,#my-svg .branch-label{fill:lightgrey;color:lightgrey;font-family:'trebuchet ms',verdana,arial,sans-serif;font-family:var(--mermaid-font-family);}#my-svg .branch-label0{fill:#333;}#my-svg .commit0{stroke:#ff9c03;fill:#ff9c03;}#my-svg .commit-highlight0{stroke:rgb(124.5000000001, 175.7678571428, 255);fill:rgb(124.5000000001, 175.7678571428, 255);}#my-svg .label0{fill:#ff9c03;}#my-svg .arrow0{stroke:#ff9c03;}#my-svg .branch-label1{fill:#333;}#my-svg .commit1{stroke:#04c5c2;fill:#04c5c2;}#my-svg .commit-highlight1{stroke:rgb(253.5373134328, 182.9626865671, 184.0597014924);fill:rgb(253.5373134328, 182.9626865671, 184.0597014924);}#my-svg .label1{fill:#04c5c2;}#my-svg .arrow1{stroke:#04c5c2;}#my-svg .branch-label2{fill:#333;}#my-svg .commit2{stroke:#03b3ff;fill:#03b3ff;}#my-svg .commit-highlight2{stroke:rgb(255, 163.8571428571, 124.5000000001);fill:rgb(255, 163.8571428571, 124.5000000001);}#my-svg .label2{fill:#03b3ff;}#my-svg .arrow2{stroke:#03b3ff;}#my-svg .branch-label3{fill:#333;}#my-svg .commit3{stroke:grey;fill:grey;}#my-svg .commit-highlight3{stroke:rgb(190.7499999999, 190.7499999999, 190.7499999999);fill:rgb(190.7499999999, 190.7499999999, 190.7499999999);}#my-svg .label3{fill:grey;}#my-svg .arrow3{stroke:grey;}#my-svg .branch-label4{fill:#333;}#my-svg .commit4{stroke:hsl(-19.4117647059, 100%, 68.3333333333%);fill:hsl(-19.4117647059, 100%, 68.3333333333%);}#my-svg .commit-highlight4{stroke:rgb(0, 161.5000000002, 109.2500000001);fill:rgb(0, 161.5000000002, 109.2500000001);}#my-svg .label4{fill:hsl(-19.4117647059, 100%, 68.3333333333%);}#my-svg .arrow4{stroke:hsl(-19.4117647059, 100%, 68.3333333333%);}#my-svg .branch-label5{fill:#333;}#my-svg .commit5{stroke:hsl(-49.4117647059, 100%, 68.3333333333%);fill:hsl(-49.4117647059, 100%, 68.3333333333%);}#my-svg .commit-highlight5{stroke:rgb(0, 161.5000000002, 28.5);fill:rgb(0, 161.5000000002, 28.5);}#my-svg .label5{fill:hsl(-49.4117647059, 100%, 68.3333333333%);}#my-svg .arrow5{stroke:hsl(-49.4117647059, 100%, 68.3333333333%);}#my-svg .branch-label6{fill:#333;}#my-svg .commit6{stroke:hsl(100.5882352941, 100%, 68.3333333333%);fill:hsl(100.5882352941, 100%, 68.3333333333%);}#my-svg .commit-highlight6{stroke:rgb(109.2500000001, 0, 161.5000000002);fill:rgb(109.2500000001, 0, 161.5000000002);}#my-svg .label6{fill:hsl(100.5882352941, 100%, 68.3333333333%);}#my-svg .arrow6{stroke:hsl(100.5882352941, 100%, 68.3333333333%);}#my-svg .branch-label7{fill:#333;}#my-svg .commit7{stroke:hsl(160.5882352941, 100%, 68.3333333333%);fill:hsl(160.5882352941, 100%, 68.3333333333%);}#my-svg .commit-highlight7{stroke:rgb(161.5000000002, 0, 52.2500000001);fill:rgb(161.5000000002, 0, 52.2500000001);}#my-svg .label7{fill:hsl(160.5882352941, 100%, 68.3333333333%);}#my-svg .arrow7{stroke:hsl(160.5882352941, 100%, 68.3333333333%);}#my-svg .branch{stroke-width:1;stroke:#0b0b0b;stroke-dasharray:2;}#my-svg .commit-label{font-size:8px;fill:rgb(11.0000000001, 34.0000000002, 0);}#my-svg .commit-label-bkg{font-size:8px;fill:hsl(-79.4117647059, 100%, 93.3333333333%);opacity:0.5;}#my-svg .tag-label{font-size:10px;fill:#333;}#my-svg .tag-label-bkg{fill:#fff4dd;stroke:hsl(40.5882352941, 60%, 83.3333333333%);}#my-svg .tag-hole{fill:#333;}#my-svg .commit-merge{stroke:#fff4dd;fill:#fff4dd;}#my-svg .commit-reverse{stroke:#fff4dd;fill:#fff4dd;stroke-width:3;}#my-svg .commit-highlight-inner{stroke:#fff4dd;fill:#fff4dd;}#my-svg .arrow{stroke-width:8;stroke-linecap:round;fill:none;}#my-svg .gitTitleText{text-anchor:middle;font-size:18px;fill:#333;}#my-svg :root{--mermaid-font-family:"trebuchet ms",verdana,arial,sans-serif;}</style><g /><g class="commit-bullets" /><g class="commit-labels" /><g><line class="branch branch0" y2="0" x2="2900" y1="0" x1="0" /><rect transform="translate(-19, -9.5)" height="23" width="52.78125" y="-1.5" x="-38.78125" ry="4" rx="4" class="branchLabelBkg label0" /><g class="branchLabel"><g transform="translate(-48.78125, -10.5)" class="label branch-label0"><text><tspan class="row" x="0" dy="1em" xml:space="preserve">work</tspan></text></g></g><line class="branch branch1" y2="50" x2="2900" y1="50" x1="0" /><rect transform="translate(-19, 40.5)" height="23" width="50.25" y="-1.5" x="-36.25" ry="4" rx="4" class="branchLabelBkg label1" /><g class="branchLabel"><g transform="translate(-46.25, 39.5)" class="label branch-label1"><text><tspan class="row" x="0" dy="1em" xml:space="preserve">misc</tspan></text></g></g><line class="branch branch2" y2="100" x2="2900" y1="100" x1="0" /><rect transform="translate(-19, 90.5)" height="23" width="99.390625" y="-1.5" x="-85.390625" ry="4" rx="4" class="branchLabelBkg label2" /><g class="branchLabel"><g transform="translate(-95.390625, 89.5)" class="label branch-label2"><text><tspan class="row" x="0" dy="1em" xml:space="preserve">pet project</tspan></text></g></g><line class="branch branch3" y2="150" x2="2900" y1="150" x1="0" /><rect transform="translate(-19, 140.5)" height="23" width="50.921875" y="-1.5" x="-36.921875" ry="4" rx="4" class="branchLabelBkg label3" /><g class="branchLabel"><g transform="translate(-46.921875, 139.5)" class="label branch-label3"><text><tspan class="row" x="0" dy="1em" xml:space="preserve">time</tspan></text></g></g></g><g class="commit-arrows"><path class="arrow arrow3" d="M 10 150 L 110 150" /><path class="arrow arrow2" d="M 160 100 L 210 100" /><path class="arrow arrow2" d="M 210 100 L 260 100" /><path class="arrow arrow0" d="M 60 0 L 310 0" /><path class="arrow arrow0" d="M 310 0 L 360 0" /><path class="arrow arrow2" d="M 260 100 L 340 100 A 20 20, 0, 0, 0, 360 80 L 360 0" /><path class="arrow arrow3" d="M 110 150 L 410 150" /><path class="arrow arrow3" d="M 410 150 L 460 150" /><path class="arrow arrow3" d="M 460 150 L 510 150" /><path class="arrow arrow0" d="M 360 0 L 560 0" /><path class="arrow arrow2" d="M 260 100 L 540 100 A 20 20, 0, 0, 0, 560 80 L 560 0" /><path class="arrow arrow0" d="M 560 0 L 610 0" /><path class="arrow arrow2" d="M 260 100 L 660 100" /><path class="arrow arrow2" d="M 660 100 L 710 100" /><path class="arrow arrow0" d="M 610 0 L 610 30 A 10 10, 0, 0, 0, 620 40 L 700 40 A 10 10, 0, 0, 1, 710 50 L 710 100" /><path class="arrow arrow0" d="M 610 0 L 760 0" /><path class="arrow arrow3" d="M 510 150 L 810 150" /><path class="arrow arrow0" d="M 760 0 L 790 0 A 20 20, 0, 0, 1, 810 20 L 810 150" /><path class="arrow arrow3" d="M 810 150 L 860 150" /><path class="arrow arrow3" d="M 860 150 L 910 150" /><path class="arrow arrow2" d="M 710 100 L 960 100" /><path class="arrow arrow2" d="M 960 100 L 1010 100" /><path class="arrow arrow0" d="M 760 0 L 1060 0" /><path class="arrow arrow2" d="M 1010 100 L 1040 100 A 20 20, 0, 0, 0, 1060 80 L 1060 0" /><path class="arrow arrow3" d="M 910 150 L 1110 150" /><path class="arrow arrow2" d="M 1010 100 L 1160 100" /><path class="arrow arrow0" d="M 1060 0 L 1210 0" /><path class="arrow arrow2" d="M 1160 100 L 1190 100 A 20 20, 0, 0, 0, 1210 80 L 1210 0" /><path class="arrow arrow2" d="M 1160 100 L 1260 100" /><path class="arrow arrow0" d="M 1210 0 L 1310 0" /><path class="arrow arrow2" d="M 1260 100 L 1290 100 A 20 20, 0, 0, 0, 1310 80 L 1310 0" /><path class="arrow arrow3" d="M 1110 150 L 1360 150" /><path class="arrow arrow2" d="M 1260 100 L 1410 100" /><path class="arrow arrow0" d="M 1310 0 L 1460 0" /><path class="arrow arrow2" d="M 1410 100 L 1440 100 A 20 20, 0, 0, 0, 1460 80 L 1460 0" /><path class="arrow arrow2" d="M 1410 100 L 1510 100" /><path class="arrow arrow1" d="M 1510 100 L 1510 70 A 20 20, 0, 0, 1, 1530 50 L 1560 50" /><path class="arrow arrow0" d="M 1460 0 L 1610 0" /><path class="arrow arrow1" d="M 1560 50 L 1590 50 A 20 20, 0, 0, 0, 1610 30 L 1610 0" /><path class="arrow arrow2" d="M 1510 100 L 1660 100" /><path class="arrow arrow1" d="M 1560 50 L 1640 50 A 20 20, 0, 0, 1, 1660 70 L 1660 100" /><path class="arrow arrow3" d="M 1360 150 L 1710 150" /><path class="arrow arrow2" d="M 1660 100 L 1740 100 A 20 20, 0, 0, 0, 1760 80 L 1760 50" /><path class="arrow arrow2" d="M 1660 100 L 1810 100" /><path class="arrow arrow1" d="M 1760 50 L 1790 50 A 20 20, 0, 0, 1, 1810 70 L 1810 100" /><path class="arrow arrow3" d="M 1710 150 L 1860 150" /><path class="arrow arrow2" d="M 1810 100 L 1910 100" /><path class="arrow arrow2" d="M 1910 100 L 1960 100" /><path class="arrow arrow2" d="M 1960 100 L 1990 100 A 20 20, 0, 0, 0, 2010 80 L 2010 50" /><path class="arrow arrow2" d="M 1960 100 L 2060 100" /><path class="arrow arrow1" d="M 2010 50 L 2040 50 A 20 20, 0, 0, 1, 2060 70 L 2060 100" /><path class="arrow arrow2" d="M 2060 100 L 2090 100 A 20 20, 0, 0, 0, 2110 80 L 2110 50" /><path class="arrow arrow2" d="M 2060 100 L 2160 100" /><path class="arrow arrow1" d="M 2110 50 L 2140 50 A 20 20, 0, 0, 1, 2160 70 L 2160 100" /><path class="arrow arrow3" d="M 1860 150 L 2210 150" /><path class="arrow arrow1" d="M 2110 50 L 2190 50 A 20 20, 0, 0, 1, 2210 70 L 2210 150" /><path class="arrow arrow2" d="M 2160 100 L 2260 100" /><path class="arrow arrow3" d="M 2210 150 L 2310 150" /><path class="arrow arrow2" d="M 2260 100 L 2360 100" /><path class="arrow arrow3" d="M 2310 150 L 2410 150" /><path class="arrow arrow2" d="M 2360 100 L 2460 100" /><path class="arrow arrow0" d="M 1610 0 L 2510 0" /><path class="arrow arrow2" d="M 2460 100 L 2490 100 A 20 20, 0, 0, 0, 2510 80 L 2510 0" /><path class="arrow arrow2" d="M 2460 100 L 2540 100 A 20 20, 0, 0, 0, 2560 80 L 2560 50" /><path class="arrow arrow1" d="M 2560 50 L 2610 50" /><path class="arrow arrow1" d="M 2610 50 L 2660 50" /><path class="arrow arrow1" d="M 2660 50 L 2710 50" /><path class="arrow arrow1" d="M 2710 50 L 2760 50" /><path class="arrow arrow0" d="M 2510 0 L 2810 0" /><path class="arrow arrow1" d="M 2760 50 L 2790 50 A 20 20, 0, 0, 0, 2810 30 L 2810 0" /><path class="arrow arrow3" d="M 2410 150 L 2860 150" /></g><g class="commit-bullets"><circle class="commit long time ago commit3" r="10" cy="150" cx="10" /><rect class="commit architect @ big corp commit-highlight0 commit-highlight-outer" height="20" width="20" y="-10" x="50" /><rect class="commit architect @ big corp commit0 commit-highlight-inner" height="12" width="12" y="-6" x="54" /><circle class="commit 2016 commit3" r="10" cy="150" cx="110" /><circle class="commit &#129305; idea commit2" r="10" cy="100" cx="160" /><rect class="commit Play framework commit-highlight2 commit-highlight-outer" height="20" width="20" y="90" x="200" /><rect class="commit Play framework commit2 commit-highlight-inner" height="12" width="12" y="94" x="204" /><circle class="commit scala commit2" r="10" cy="100" cx="260" /><rect class="commit dev @ startup commit-highlight0 commit-highlight-outer" height="20" width="20" y="-10" x="300" /><rect class="commit dev @ startup commit0 commit-highlight-inner" height="12" width="12" y="-6" x="304" /><circle class="commit Spark commit0" r="9" cy="0" cx="360" /><circle class="commit commit-merge Spark commit0" r="6" cy="0" cx="360" /><circle class="commit 2017 commit3" r="10" cy="150" cx="410" /><rect class="commit &#128118; baby commit-highlight3 commit-highlight-outer" height="20" width="20" y="140" x="450" /><rect class="commit &#128118; baby commit3 commit-highlight-inner" height="12" width="12" y="144" x="454" /><circle class="commit 2018 commit3" r="10" cy="150" cx="510" /><circle class="commit Scala.io conf commit0" r="9" cy="0" cx="560" /><circle class="commit commit-merge Scala.io conf commit0" r="6" cy="0" cx="560" /><circle class="commit MongoDb commit0" r="10" cy="0" cx="610" /><rect class="commit Ionic commit-highlight2 commit-highlight-outer" height="20" width="20" y="90" x="650" /><rect class="commit Ionic commit2 commit-highlight-inner" height="12" width="12" y="94" x="654" /><rect class="commit MeteorJS commit-highlight2 commit-highlight-outer" height="20" width="20" y="90" x="700" /><rect class="commit MeteorJS commit2 commit-highlight-inner" height="12" width="12" y="94" x="704" /><rect class="commit dev @ Criteo commit-highlight0 commit-highlight-outer" height="20" width="20" y="-10" x="750" /><rect class="commit dev @ Criteo commit0 commit-highlight-inner" height="12" width="12" y="-6" x="754" /><circle class="commit 16-3aac536 commit3" r="9" cy="150" cx="810" /><circle class="commit commit-merge 16-3aac536 commit3" r="6" cy="150" cx="810" /><rect class="commit &#127969; rent a house commit-highlight3 commit-highlight-outer" height="20" width="20" y="140" x="850" /><rect class="commit &#127969; rent a house commit3 commit-highlight-inner" height="12" width="12" y="144" x="854" /><circle class="commit 2019 commit3" r="10" cy="150" cx="910" /><circle class="commit Angular commit2" r="10" cy="100" cx="960" /><circle class="commit Typescript commit2" r="10" cy="100" cx="1010" /><circle class="commit CGrowth UI commit0" r="9" cy="0" cx="1060" /><circle class="commit commit-merge CGrowth UI commit0" r="6" cy="0" cx="1060" /><circle class="commit 2020 commit3" r="10" cy="150" cx="1110" /><circle class="commit Leaflet commit2" r="10" cy="100" cx="1160" /><circle class="commit Geoloc audiences commit0" r="9" cy="0" cx="1210" /><circle class="commit commit-merge Geoloc audiences commit0" r="6" cy="0" cx="1210" /><circle class="commit notifications commit2" r="10" cy="100" cx="1260" /><circle class="commit CGrowth alerts commit0" r="9" cy="0" cx="1310" /><circle class="commit commit-merge CGrowth alerts commit0" r="6" cy="0" cx="1310" /><circle class="commit 2021 commit3" r="10" cy="150" cx="1360" /><circle class="commit github actions commit2" r="10" cy="100" cx="1410" /><circle class="commit OneKey commit0" r="9" cy="0" cx="1460" /><circle class="commit commit-merge OneKey commit0" r="6" cy="0" cx="1460" /><circle class="commit data validation &amp; strong typing commit2" r="10" cy="100" cx="1510" /><circle class="commit schema-to-types commit1" r="10" cy="50" cx="1560" /><circle class="commit JSON schemas commit0" r="9" cy="0" cx="1610" /><circle class="commit commit-merge JSON schemas commit0" r="6" cy="0" cx="1610" /><circle class="commit 33-8fe155a commit2" r="9" cy="100" cx="1660" /><circle class="commit commit-merge 33-8fe155a commit2" r="6" cy="100" cx="1660" /><circle class="commit 2022 commit3" r="10" cy="150" cx="1710" /><circle class="commit consulting commit1" r="9" cy="50" cx="1760" /><circle class="commit commit-merge consulting commit1" r="6" cy="50" cx="1760" /><circle class="commit 36-14a18f8 commit2" r="9" cy="100" cx="1810" /><circle class="commit commit-merge 36-14a18f8 commit2" r="6" cy="100" cx="1810" /><circle class="commit 2023 commit3" r="10" cy="150" cx="1860" /><circle class="commit open data commit2" r="10" cy="100" cx="1910" /><circle class="commit web crawler commit2" r="10" cy="100" cx="1960" /><circle class="commit waterspot-catalog commit1" r="9" cy="50" cx="2010" /><circle class="commit commit-merge waterspot-catalog commit1" r="6" cy="50" cx="2010" /><circle class="commit 41-00d58ae commit2" r="9" cy="100" cx="2060" /><circle class="commit commit-merge 41-00d58ae commit2" r="6" cy="100" cx="2060" /><circle class="commit a-place-to-live commit1" r="9" cy="50" cx="2110" /><circle class="commit commit-merge a-place-to-live commit1" r="6" cy="50" cx="2110" /><circle class="commit 43-c5f78ba commit2" r="9" cy="100" cx="2160" /><circle class="commit commit-merge 43-c5f78ba commit2" r="6" cy="100" cx="2160" /><rect class="commit &#127969; buy a house commit-highlight3 commit-highlight-outer" height="20" width="20" y="140" x="2200" /><rect class="commit &#127969; buy a house commit3 commit-highlight-inner" height="12" width="12" y="144" x="2204" /><circle class="commit ImageKit commit2" r="10" cy="100" cx="2260" /><circle class="commit 2024 commit3" r="10" cy="150" cx="2310" /><circle class="commit server side rendering commit2" r="10" cy="100" cx="2360" /><circle class="commit 2025 commit3" r="10" cy="150" cx="2410" /><circle class="commit open graph commit2" r="10" cy="100" cx="2460" /><circle class="commit client metadata commit0" r="9" cy="0" cx="2510" /><circle class="commit commit-merge client metadata commit0" r="6" cy="0" cx="2510" /><circle class="commit talk commit1" r="9" cy="50" cx="2560" /><circle class="commit commit-merge talk commit1" r="6" cy="50" cx="2560" /><circle class="commit reveal.js commit1" r="10" cy="50" cx="2610" /><circle class="commit emmet commit1" r="10" cy="50" cx="2660" /><circle class="commit mermaid.js commit1" r="10" cy="50" cx="2710" /><circle class="commit sozi commit1" r="10" cy="50" cx="2760" /><circle class="commit &#127908; futurise commit0" r="9" cy="0" cx="2810" /><circle class="commit commit-merge &#127908; futurise commit0" r="6" cy="0" cx="2810" /><circle class="commit   commit3" r="10" cy="150" cx="2860" /></g><g class="commit-labels"><g><rect height="14" width="52.828125" y="163.5" x="-16.4140625" class="commit-label-bkg" /><text class="commit-label" y="175" x="-14.4140625">long time ago</text></g><g><rect height="14" width="76.5625" y="13.5" x="21.71875" class="commit-label-bkg" /><text class="commit-label" y="25" x="23.71875">architect @ big corp</text></g><g><rect height="14" width="20.78125" y="163.5" x="99.609375" class="commit-label-bkg" /><text class="commit-label" y="175" x="101.609375">2016</text></g><g><rect height="16" width="32.71875" y="113.5" x="143.640625" class="commit-label-bkg" /><text class="commit-label" y="125" x="145.640625">&#129305; idea</text></g><g><rect height="14" width="60.046875" y="113.5" x="179.9765625" class="commit-label-bkg" /><text class="commit-label" y="125" x="181.9765625">Play framework</text></g><g><rect height="14" width="21.96875" y="113.5" x="249.015625" class="commit-label-bkg" /><text class="commit-label" y="125" x="251.015625">scala</text></g><g><rect height="14" width="53.453125" y="13.5" x="283.2734375" class="commit-label-bkg" /><text class="commit-label" y="25" x="285.2734375">dev @ startup</text></g><g><rect height="14" width="23.65625" y="13.5" x="348.171875" class="commit-label-bkg" /><text class="commit-label" y="25" x="350.171875">Spark</text></g><g><rect height="14" width="20.78125" y="163.5" x="399.609375" class="commit-label-bkg" /><text class="commit-label" y="175" x="401.609375">2017</text></g><g><rect height="16" width="34.484375" y="163.5" x="442.7578125" class="commit-label-bkg" /><text class="commit-label" y="175" x="444.7578125">&#128118; baby</text></g><g><rect height="14" width="20.78125" y="163.5" x="499.609375" class="commit-label-bkg" /><text class="commit-label" y="175" x="501.609375">2018</text></g><g><rect height="14" width="50.1171875" y="13.5" x="534.94140625" class="commit-label-bkg" /><text class="commit-label" y="25" x="536.94140625">Scala.io conf</text></g><g><rect height="14" width="36.015625" y="13.5" x="591.9921875" class="commit-label-bkg" /><text class="commit-label" y="25" x="593.9921875">MongoDb</text></g><g><rect height="14" width="21.140625" y="113.5" x="649.4296875" class="commit-label-bkg" /><text class="commit-label" y="125" x="651.4296875">Ionic</text></g><g><rect height="14" width="36.640625" y="113.5" x="691.6796875" class="commit-label-bkg" /><text class="commit-label" y="125" x="693.6796875">MeteorJS</text></g><g><rect height="14" width="49.734375" y="13.5" x="735.1328125" class="commit-label-bkg" /><text class="commit-label" y="25" x="737.1328125">dev @ Criteo</text></g><g><rect height="16" width="62.09375" y="163.5" x="828.953125" class="commit-label-bkg" /><text class="commit-label" y="175" x="830.953125">&#127969; rent a house</text></g><g><rect height="14" width="20.78125" y="163.5" x="899.609375" class="commit-label-bkg" /><text class="commit-label" y="175" x="901.609375">2019</text></g><g><rect height="14" width="31.15625" y="113.5" x="944.421875" class="commit-label-bkg" /><text class="commit-label" y="125" x="946.421875">Angular</text></g><g><rect height="14" width="40.71875" y="113.5" x="989.640625" class="commit-label-bkg" /><text class="commit-label" y="125" x="991.640625">Typescript</text></g><g><rect height="14" width="44.921875" y="13.5" x="1037.5390625" class="commit-label-bkg" /><text class="commit-label" y="25" x="1039.5390625">CGrowth UI</text></g><g><rect height="14" width="20.78125" y="163.5" x="1099.609375" class="commit-label-bkg" /><text class="commit-label" y="175" x="1101.609375">2020</text></g><g><rect height="14" width="29.46875" y="113.5" x="1145.265625" class="commit-label-bkg" /><text class="commit-label" y="125" x="1147.265625">Leaflet</text></g><g><rect height="14" width="66.703125" y="13.5" x="1176.6484375" class="commit-label-bkg" /><text class="commit-label" y="25" x="1178.6484375">Geoloc audiences</text></g><g><rect height="14" width="48.875" y="113.5" x="1235.5625" class="commit-label-bkg" /><text class="commit-label" y="125" x="1237.5625">notifications</text></g><g><rect height="14" width="57.953125" y="13.5" x="1281.0234375" class="commit-label-bkg" /><text class="commit-label" y="25" x="1283.0234375">CGrowth alerts</text></g><g><rect height="14" width="20.78125" y="163.5" x="1349.609375" class="commit-label-bkg" /><text class="commit-label" y="175" x="1351.609375">2021</text></g><g><rect height="14" width="54.609375" y="113.5" x="1382.6953125" class="commit-label-bkg" /><text class="commit-label" y="125" x="1384.6953125">github actions</text></g><g><rect height="14" width="30.796875" y="13.5" x="1444.6015625" class="commit-label-bkg" /><text class="commit-label" y="25" x="1446.6015625">OneKey</text></g><g><rect height="14" width="115.3125" y="113.5" x="1452.34375" class="commit-label-bkg" /><text class="commit-label" y="125" x="1454.34375">data validation &amp; strong typing</text></g><g><rect height="14" width="63.296875" y="63.5" x="1528.3515625" class="commit-label-bkg" /><text class="commit-label" y="75" x="1530.3515625">schema-to-types</text></g><g><rect height="14" width="54.59375" y="13.5" x="1582.703125" class="commit-label-bkg" /><text class="commit-label" y="25" x="1584.703125">JSON schemas</text></g><g><rect height="14" width="20.78125" y="163.5" x="1699.609375" class="commit-label-bkg" /><text class="commit-label" y="175" x="1701.609375">2022</text></g><g><rect height="14" width="40.4375" y="63.5" x="1739.78125" class="commit-label-bkg" /><text class="commit-label" y="75" x="1741.78125">consulting</text></g><g><rect height="14" width="20.78125" y="163.5" x="1849.609375" class="commit-label-bkg" /><text class="commit-label" y="175" x="1851.609375">2023</text></g><g><rect height="14" width="39.9375" y="113.5" x="1890.03125" class="commit-label-bkg" /><text class="commit-label" y="125" x="1892.03125">open data</text></g><g><rect height="14" width="48.25" y="113.5" x="1935.875" class="commit-label-bkg" /><text class="commit-label" y="125" x="1937.875">web crawler</text></g><g><rect height="14" width="69.109375" y="63.5" x="1975.4453125" class="commit-label-bkg" /><text class="commit-label" y="75" x="1977.4453125">waterspot-catalog</text></g><g><rect height="14" width="56.75" y="63.5" x="2081.625" class="commit-label-bkg" /><text class="commit-label" y="75" x="2083.625">a-place-to-live</text></g><g><rect height="16" width="59.84375" y="163.5" x="2180.078125" class="commit-label-bkg" /><text class="commit-label" y="175" x="2182.078125">&#127969; buy a house</text></g><g><rect height="14" width="35.265625" y="113.5" x="2242.3671875" class="commit-label-bkg" /><text class="commit-label" y="125" x="2244.3671875">ImageKit</text></g><g><rect height="14" width="20.78125" y="163.5" x="2299.609375" class="commit-label-bkg" /><text class="commit-label" y="175" x="2301.609375">2024</text></g><g><rect height="14" width="79.703125" y="113.5" x="2320.1484375" class="commit-label-bkg" /><text class="commit-label" y="125" x="2322.1484375">server side rendering</text></g><g><rect height="14" width="20.78125" y="163.5" x="2399.609375" class="commit-label-bkg" /><text class="commit-label" y="175" x="2401.609375">2025</text></g><g><rect height="14" width="44.0625" y="113.5" x="2437.96875" class="commit-label-bkg" /><text class="commit-label" y="125" x="2439.96875">open graph</text></g><g><rect height="14" width="61.34375" y="13.5" x="2479.328125" class="commit-label-bkg" /><text class="commit-label" y="25" x="2481.328125">client metadata</text></g><g><rect height="14" width="17.78125" y="63.5" x="2551.109375" class="commit-label-bkg" /><text class="commit-label" y="75" x="2553.109375">talk</text></g><g><rect height="14" width="35.4375" y="63.5" x="2592.28125" class="commit-label-bkg" /><text class="commit-label" y="75" x="2594.28125">reveal.js</text></g><g><rect height="14" width="29.1875" y="63.5" x="2645.40625" class="commit-label-bkg" /><text class="commit-label" y="75" x="2647.40625">emmet</text></g><g><rect height="14" width="44.8125" y="63.5" x="2687.59375" class="commit-label-bkg" /><text class="commit-label" y="75" x="2689.59375">mermaid.js</text></g><g><rect height="14" width="17.609375" y="63.5" x="2751.1953125" class="commit-label-bkg" /><text class="commit-label" y="75" x="2753.1953125">sozi</text></g><g><rect height="16" width="45.28125" y="13.5" x="2787.359375" class="commit-label-bkg" /><text class="commit-label" y="25" x="2789.359375">&#127908; futurise</text></g><g><rect height="4" width="4" y="163.5" x="2858" class="commit-label-bkg" /><text class="commit-label" y="175" x="2860"> </text></g></g></svg>