<svg xmlns="http://www.w3.org/2000/svg" aria-roledescription="gitGraph" role="graphics-document document" viewBox="-112.390625 -19 3070.390625 206.5" style="max-width: 3070.39px; background-color: white;" width="100%" id="my-svg" xmlns:inkscape="http://www.inkscape.org/namespaces/inkscape"><style>#my-svg{font-family:"trebuchet ms",verdana,arial,sans-serif;font-size:16px;fill:#333;}@keyframes edge-animation-frame{from{stroke-dashoffset:0;}}@keyframes dash{to{stroke-dashoffset:0;}}#my-svg .edge-animation-slow{stroke-dasharray:9,5!important;stroke-dashoffset:900;animation:dash 50s linear infinite;stroke-linecap:round;}#my-svg .edge-animation-fast{stroke-dasharray:9,5!important;stroke-dashoffset:900;animation:dash 20s linear infinite;stroke-linecap:round;}#my-svg .error-icon{fill:hsl(220.5882352941, 100%, 98.3333333333%);}#my-svg .error-text{fill:rgb(8.5000000002, 5.7500000001, 0);stroke:rgb(8.5000000002, 5.7500000001, 0);}#my-svg .edge-thickness-normal{stroke-width:1px;}#my-svg .edge-thickness-thick{stroke-width:3.5px;}#my-svg .edge-pattern-solid{stroke-dasharray:0;}#my-svg .edge-thickness-invisible{stroke-width:0;fill:none;}#my-svg .edge-pattern-dashed{stroke-dasharray:3;}#my-svg .edge-pattern-dotted{stroke-dasharray:2;}#my-svg .marker{fill:#0b0b0b;stroke:#0b0b0b;}#my-svg .marker.cross{stroke:#0b0b0b;}#my-svg svg{font-family:"trebuchet ms",verdana,arial,sans-serif;font-size:16px;}#my-svg p{margin:0;}#my-svg .commit-id,#my-svg .commit-msg,#my-svg .branch-label{fill:lightgrey;color:lightgrey;font-family:'trebuchet ms',verdana,arial,sans-serif;font-family:var(--mermaid-font-family);}#my-svg .branch-label0{fill:#333;}#my-svg .commit0{stroke:#ff9c03;fill:#ff9c03;}#my-svg .commit-highlight0{stroke:rgb(124.5000000001, 175.7678571428, 255);fill:rgb(124.5000000001, 175.7678571428, 255);}#my-svg .label0{fill:#ff9c03;}#my-svg .arrow0{stroke:#ff9c03;}#my-svg .branch-label1{fill:#333;}#my-svg .commit1{stroke:#04c5c2;fill:#04c5c2;}#my-svg .commit-highlight1{stroke:rgb(253.5373134328, 182.9626865671, 184.0597014924);fill:rgb(253.5373134328, 182.9626865671, 184.0597014924);}#my-svg .label1{fill:#04c5c2;}#my-svg .arrow1{stroke:#04c5c2;}#my-svg .branch-label2{fill:#333;}#my-svg .commit2{stroke:#03b3ff;fill:#03b3ff;}#my-svg .commit-highlight2{stroke:rgb(255, 163.8571428571, 124.5000000001);fill:rgb(255, 163.8571428571, 124.5000000001);}#my-svg .label2{fill:#03b3ff;}#my-svg .arrow2{stroke:#03b3ff;}#my-svg .branch-label3{fill:#333;}#my-svg .commit3{stroke:grey;fill:grey;}#my-svg .commit-highlight3{stroke:rgb(190.7499999999, 190.7499999999, 190.7499999999);fill:rgb(190.7499999999, 190.7499999999, 190.7499999999);}#my-svg .label3{fill:grey;}#my-svg .arrow3{stroke:grey;}#my-svg .branch-label4{fill:#333;}#my-svg .commit4{stroke:hsl(-19.4117647059, 100%, 68.3333333333%);fill:hsl(-19.4117647059, 100%, 68.3333333333%);}#my-svg .commit-highlight4{stroke:rgb(0, 161.5000000002, 109.2500000001);fill:rgb(0, 161.5000000002, 109.2500000001);}#my-svg .label4{fill:hsl(-19.4117647059, 100%, 68.3333333333%);}#my-svg .arrow4{stroke:hsl(-19.4117647059, 100%, 68.3333333333%);}#my-svg .branch-label5{fill:#333;}#my-svg .commit5{stroke:hsl(-49.4117647059, 100%, 68.3333333333%);fill:hsl(-49.4117647059, 100%, 68.3333333333%);}#my-svg .commit-highlight5{stroke:rgb(0, 161.5000000002, 28.5);fill:rgb(0, 161.5000000002, 28.5);}#my-svg .label5{fill:hsl(-49.4117647059, 100%, 68.3333333333%);}#my-svg .arrow5{stroke:hsl(-49.4117647059, 100%, 68.3333333333%);}#my-svg .branch-label6{fill:#333;}#my-svg .commit6{stroke:hsl(100.5882352941, 100%, 68.3333333333%);fill:hsl(100.5882352941, 100%, 68.3333333333%);}#my-svg .commit-highlight6{stroke:rgb(109.2500000001, 0, 161.5000000002);fill:rgb(109.2500000001, 0, 161.5000000002);}#my-svg .label6{fill:hsl(100.5882352941, 100%, 68.3333333333%);}#my-svg .arrow6{stroke:hsl(100.5882352941, 100%, 68.3333333333%);}#my-svg .branch-label7{fill:#333;}#my-svg .commit7{stroke:hsl(160.5882352941, 100%, 68.3333333333%);fill:hsl(160.5882352941, 100%, 68.3333333333%);}#my-svg .commit-highlight7{stroke:rgb(161.5000000002, 0, 52.2500000001);fill:rgb(161.5000000002, 0, 52.2500000001);}#my-svg .label7{fill:hsl(160.5882352941, 100%, 68.3333333333%);}#my-svg .arrow7{stroke:hsl(160.5882352941, 100%, 68.3333333333%);}#my-svg .branch{stroke-width:1;stroke:#0b0b0b;stroke-dasharray:2;}#my-svg .commit-label{font-size:8px;fill:rgb(11.0000000001, 34.0000000002, 0);}#my-svg .commit-label-bkg{font-size:8px;fill:hsl(-79.4117647059, 100%, 93.3333333333%);opacity:0.5;}#my-svg .tag-label{font-size:10px;fill:#333;}#my-svg .tag-label-bkg{fill:#fff4dd;stroke:hsl(40.5882352941, 60%, 83.3333333333%);}#my-svg .tag-hole{fill:#333;}#my-svg .commit-merge{stroke:#fff4dd;fill:#fff4dd;}#my-svg .commit-reverse{stroke:#fff4dd;fill:#fff4dd;stroke-width:3;}#my-svg .commit-highlight-inner{stroke:#fff4dd;fill:#fff4dd;}#my-svg .arrow{stroke-width:8;stroke-linecap:round;fill:none;}#my-svg .gitTitleText{text-anchor:middle;font-size:18px;fill:#333;}#my-svg :root{--mermaid-font-family:"trebuchet ms",verdana,arial,sans-serif;}</style><g /><g class="commit-bullets" /><g class="commit-labels" /><g><line class="branch branch0" y2="0" x2="2950" y1="0" x1="0" /><rect transform="translate(-19, -9.5)" height="23" width="52.78125" y="-1.5" x="-38.78125" ry="4" rx="4" class="branchLabelBkg label0" /><g class="branchLabel"><g transform="translate(-48.78125, -10.5)" class="label branch-label0"><text><tspan class="row" x="0" dy="1em" xml:space="preserve">work</tspan></text></g></g><line class="branch branch1" y2="50" x2="2950" y1="50" x1="0" /><rect transform="translate(-19, 40.5)" height="23" width="50.25" y="-1.5" x="-36.25" ry="4" rx="4" class="branchLabelBkg label1" /><g class="branchLabel"><g transform="translate(-46.25, 39.5)" class="label branch-label1"><text><tspan class="row" x="0" dy="1em" xml:space="preserve">misc</tspan></text></g></g><line class="branch branch2" y2="100" x2="2950" y1="100" x1="0" /><rect transform="translate(-19, 90.5)" height="23" width="99.390625" y="-1.5" x="-85.390625" ry="4" rx="4" class="branchLabelBkg label2" /><g class="branchLabel"><g transform="translate(-95.390625, 89.5)" class="label branch-label2"><text><tspan class="row" x="0" dy="1em" xml:space="preserve">pet project</tspan></text></g></g><line class="branch branch3" y2="150" x2="2950" y1="150" x1="0" /><rect transform="translate(-19, 140.5)" height="23" width="50.921875" y="-1.5" x="-36.921875" ry="4" rx="4" class="branchLabelBkg label3" /><g class="branchLabel"><g transform="translate(-46.921875, 139.5)" class="label branch-label3"><text><tspan class="row" x="0" dy="1em" xml:space="preserve">time</tspan></text></g></g></g><g class="commit-arrows"><path class="arrow arrow3" d="M 10 150 L 110 150" /><path class="arrow arrow2" d="M 160 100 L 210 100" /><path class="arrow arrow2" d="M 210 100 L 260 100" /><path class="arrow arrow0" d="M 60 0 L 310 0" /><path class="arrow arrow0" d="M 310 0 L 360 0" /><path class="arrow arrow2" d="M 260 100 L 340 100 A 20 20, 0, 0, 0, 360 80 L 360 0" /><path class="arrow arrow3" d="M 110 150 L 410 150" /><path class="arrow arrow3" d="M 410 150 L 460 150" /><path class="arrow arrow0" d="M 360 0 L 510 0" /><path class="arrow arrow2" d="M 260 100 L 490 100 A 20 20, 0, 0, 0, 510 80 L 510 0" /><path class="arrow arrow2" d="M 260 100 L 560 100" /><path class="arrow arrow3" d="M 460 150 L 610 150" /><path class="arrow arrow0" d="M 510 0 L 660 0" /><path class="arrow arrow2" d="M 560 100 L 710 100" /><path class="arrow arrow0" d="M 660 0 L 690 0 A 20 20, 0, 0, 1, 710 20 L 710 100" /><path class="arrow arrow2" d="M 710 100 L 760 100" /><path class="arrow arrow2" d="M 760 100 L 810 100" /><path class="arrow arrow0" d="M 660 0 L 860 0" /><path class="arrow arrow2" d="M 810 100 L 910 100" /><path class="arrow arrow0" d="M 860 0 L 890 0 A 20 20, 0, 0, 1, 910 20 L 910 100" /><path class="arrow arrow0" d="M 860 0 L 960 0" /><path class="arrow arrow3" d="M 610 150 L 1010 150" /><path class="arrow arrow0" d="M 960 0 L 990 0 A 20 20, 0, 0, 1, 1010 20 L 1010 150" /><path class="arrow arrow3" d="M 1010 150 L 1060 150" /><path class="arrow arrow3" d="M 1060 150 L 1110 150" /><path class="arrow arrow0" d="M 960 0 L 1160 0" /><path class="arrow arrow2" d="M 910 100 L 1140 100 A 20 20, 0, 0, 0, 1160 80 L 1160 0" /><path class="arrow arrow3" d="M 1110 150 L 1210 150" /><path class="arrow arrow2" d="M 910 100 L 1260 100" /><path class="arrow arrow0" d="M 1160 0 L 1310 0" /><path class="arrow arrow2" d="M 1260 100 L 1290 100 A 20 20, 0, 0, 0, 1310 80 L 1310 0" /><path class="arrow arrow3" d="M 1210 150 L 1360 150" /><path class="arrow arrow0" d="M 1310 0 L 1410 0" /><path class="arrow arrow2" d="M 1260 100 L 1460 100" /><path class="arrow arrow0" d="M 1410 0 L 1510 0" /><path class="arrow arrow2" d="M 1460 100 L 1490 100 A 20 20, 0, 0, 0, 1510 80 L 1510 0" /><path class="arrow arrow2" d="M 1460 100 L 1560 100" /><path class="arrow arrow1" d="M 1560 100 L 1560 70 A 20 20, 0, 0, 1, 1580 50 L 1610 50" /><path class="arrow arrow0" d="M 1510 0 L 1660 0" /><path class="arrow arrow1" d="M 1610 50 L 1640 50 A 20 20, 0, 0, 0, 1660 30 L 1660 0" /><path class="arrow arrow2" d="M 1560 100 L 1710 100" /><path class="arrow arrow1" d="M 1610 50 L 1690 50 A 20 20, 0, 0, 1, 1710 70 L 1710 100" /><path class="arrow arrow2" d="M 1710 100 L 1740 100 A 20 20, 0, 0, 0, 1760 80 L 1760 50" /><path class="arrow arrow3" d="M 1360 150 L 1810 150" /><path class="arrow arrow2" d="M 1710 100 L 1860 100" /><path class="arrow arrow1" d="M 1760 50 L 1840 50 A 20 20, 0, 0, 1, 1860 70 L 1860 100" /><path class="arrow arrow2" d="M 1860 100 L 1890 100 A 20 20, 0, 0, 0, 1910 80 L 1910 50" /><path class="arrow arrow2" d="M 1860 100 L 1960 100" /><path class="arrow arrow1" d="M 1910 50 L 1940 50 A 20 20, 0, 0, 1, 1960 70 L 1960 100" /><path class="arrow arrow3" d="M 1810 150 L 2010 150" /><path class="arrow arrow2" d="M 1960 100 L 2040 100 A 20 20, 0, 0, 0, 2060 80 L 2060 50" /><path class="arrow arrow2" d="M 1960 100 L 2110 100" /><path class="arrow arrow1" d="M 2060 50 L 2090 50 A 20 20, 0, 0, 1, 2110 70 L 2110 100" /><path class="arrow arrow3" d="M 2010 150 L 2160 150" /><path class="arrow arrow1" d="M 2060 50 L 2140 50 A 20 20, 0, 0, 1, 2160 70 L 2160 150" /><path class="arrow arrow3" d="M 2160 150 L 2210 150" /><path class="arrow arrow2" d="M 2110 100 L 2260 100" /><path class="arrow arrow2" d="M 2260 100 L 2310 100" /><path class="arrow arrow2" d="M 2310 100 L 2360 100" /><path class="arrow arrow0" d="M 1660 0 L 2410 0" /><path class="arrow arrow3" d="M 2210 150 L 2460 150" /><path class="arrow arrow2" d="M 2360 100 L 2510 100" /><path class="arrow arrow2" d="M 2510 100 L 2540 100 A 20 20, 0, 0, 0, 2560 80 L 2560 50" /><path class="arrow arrow1" d="M 2560 50 L 2610 50" /><path class="arrow arrow1" d="M 2610 50 L 2660 50" /><path class="arrow arrow1" d="M 2660 50 L 2710 50" /><path class="arrow arrow1" d="M 2710 50 L 2760 50" /><path class="arrow arrow1" d="M 2760 50 L 2810 50" /><path class="arrow arrow0" d="M 2410 0 L 2860 0" /><path class="arrow arrow1" d="M 2810 50 L 2840 50 A 20 20, 0, 0, 0, 2860 30 L 2860 0" /><path class="arrow arrow3" d="M 2460 150 L 2910 150" /></g><g class="commit-bullets"><circle class="commit long time ago commit3" r="10" cy="150" cx="10" /><rect class="commit architect @ big corp commit-highlight0 commit-highlight-outer" height="20" width="20" y="-10" x="50" /><rect class="commit architect @ big corp commit0 commit-highlight-inner" height="12" width="12" y="-6" x="54" /><circle class="commit 2016 commit3" r="10" cy="150" cx="110" /><circle class="commit &#129305; idea commit2" r="10" cy="100" cx="160" /><rect class="commit Play framework commit-highlight2 commit-highlight-outer" height="20" width="20" y="90" x="200" /><rect class="commit Play framework commit2 commit-highlight-inner" height="12" width="12" y="94" x="204" /><circle class="commit scala commit2" r="10" cy="100" cx="260" /><rect class="commit dev @ startup commit-highlight0 commit-highlight-outer" height="20" width="20" y="-10" x="300" /><rect class="commit dev @ startup commit0 commit-highlight-inner" height="12" width="12" y="-6" x="304" /><circle class="commit Spark commit0" r="9" cy="0" cx="360" /><circle class="commit commit-merge Spark commit0" r="6" cy="0" cx="360" /><circle class="commit 2017 commit3" r="10" cy="150" cx="410" /><rect class="commit &#128118; baby commit-highlight3 commit-highlight-outer" height="20" width="20" y="140" x="450" /><rect class="commit &#128118; baby commit3 commit-highlight-inner" height="12" width="12" y="144" x="454" /><circle class="commit Scala.io conf commit0" r="9" cy="0" cx="510" /><circle class="commit commit-merge Scala.io conf commit0" r="6" cy="0" cx="510" /><circle class="commit ScalaJs commit2" r="10" cy="100" cx="560" /><circle class="commit 2018 commit3" r="10" cy="150" cx="610" /><circle class="commit Typescript commit0" r="10" cy="0" cx="660" /><circle class="commit 14-2b5abec commit2" r="9" cy="100" cx="710" /><circle class="commit commit-merge 14-2b5abec commit2" r="6" cy="100" cx="710" /><rect class="commit Angular commit-highlight2 commit-highlight-outer" height="20" width="20" y="90" x="750" /><rect class="commit Angular commit2 commit-highlight-inner" height="12" width="12" y="94" x="754" /><rect class="commit Ionic commit-highlight2 commit-highlight-outer" height="20" width="20" y="90" x="800" /><rect class="commit Ionic commit2 commit-highlight-inner" height="12" width="12" y="94" x="804" /><circle class="commit MongoDb commit0" r="10" cy="0" cx="860" /><rect class="commit MeteorJS commit-highlight2 commit-highlight-outer" height="20" width="20" y="90" x="900" /><rect class="commit MeteorJS commit2 commit-highlight-inner" height="12" width="12" y="94" x="904" /><rect class="commit dev @ Criteo commit-highlight0 commit-highlight-outer" height="20" width="20" y="-10" x="950" /><rect class="commit dev @ Criteo commit0 commit-highlight-inner" height="12" width="12" y="-6" x="954" /><circle class="commit 20-e67d277 commit3" r="9" cy="150" cx="1010" /><circle class="commit commit-merge 20-e67d277 commit3" r="6" cy="150" cx="1010" /><rect class="commit &#127969; rent a house commit-highlight3 commit-highlight-outer" height="20" width="20" y="140" x="1050" /><rect class="commit &#127969; rent a house commit3 commit-highlight-inner" height="12" width="12" y="144" x="1054" /><circle class="commit 2019 commit3" r="10" cy="150" cx="1110" /><circle class="commit CGrowth UI commit0" r="9" cy="0" cx="1160" /><circle class="commit commit-merge CGrowth UI commit0" r="6" cy="0" cx="1160" /><circle class="commit 2020 commit3" r="10" cy="150" cx="1210" /><circle class="commit Leaflet commit2" r="10" cy="100" cx="1260" /><circle class="commit Geoloc audiences commit0" r="9" cy="0" cx="1310" /><circle class="commit commit-merge Geoloc audiences commit0" r="6" cy="0" cx="1310" /><circle class="commit 2021 commit3" r="10" cy="150" cx="1360" /><circle class="commit User Data Platform commit0" r="10" cy="0" cx="1410" /><circle class="commit github actions commit2" r="10" cy="100" cx="1460" /><circle class="commit OneKey commit0" r="9" cy="0" cx="1510" /><circle class="commit commit-merge OneKey commit0" r="6" cy="0" cx="1510" /><circle class="commit data validation - strong typing commit2" r="10" cy="100" cx="1560" /><circle class="commit schema-to-types commit1" r="10" cy="50" cx="1610" /><circle class="commit JSON schemas commit0" r="9" cy="0" cx="1660" /><circle class="commit commit-merge JSON schemas commit0" r="6" cy="0" cx="1660" /><circle class="commit 34-841b06f commit2" r="9" cy="100" cx="1710" /><circle class="commit commit-merge 34-841b06f commit2" r="6" cy="100" cx="1710" /><circle class="commit consulting commit1" r="9" cy="50" cx="1760" /><circle class="commit commit-merge consulting commit1" r="6" cy="50" cx="1760" /><circle class="commit 2022 commit3" r="10" cy="150" cx="1810" /><circle class="commit 37-bb4a9f4 commit2" r="9" cy="100" cx="1860" /><circle class="commit commit-merge 37-bb4a9f4 commit2" r="6" cy="100" cx="1860" /><circle class="commit waterspot-catalog commit1" r="9" cy="50" cx="1910" /><circle class="commit commit-merge waterspot-catalog commit1" r="6" cy="50" cx="1910" /><circle class="commit 39-cb3d9de commit2" r="9" cy="100" cx="1960" /><circle class="commit commit-merge 39-cb3d9de commit2" r="6" cy="100" cx="1960" /><circle class="commit 2023 commit3" r="10" cy="150" cx="2010" /><circle class="commit a-place-to-live commit1" r="9" cy="50" cx="2060" /><circle class="commit commit-merge a-place-to-live commit1" r="6" cy="50" cx="2060" /><circle class="commit 42-27ec54b commit2" r="9" cy="100" cx="2110" /><circle class="commit commit-merge 42-27ec54b commit2" r="6" cy="100" cx="2110" /><rect class="commit &#127969; buy a house commit-highlight3 commit-highlight-outer" height="20" width="20" y="140" x="2150" /><rect class="commit &#127969; buy a house commit3 commit-highlight-inner" height="12" width="12" y="144" x="2154" /><circle class="commit 2024 commit3" r="10" cy="150" cx="2210" /><circle class="commit ImageKit commit2" r="10" cy="100" cx="2260" /><circle class="commit open graph commit2" r="10" cy="100" cx="2310" /><circle class="commit SSR commit2" r="10" cy="100" cx="2360" /><rect class="commit Dev lead commit-highlight0 commit-highlight-outer" height="20" width="20" y="-10" x="2400" /><rect class="commit Dev lead commit0 commit-highlight-inner" height="12" width="12" y="-6" x="2404" /><circle class="commit 2025 commit3" r="10" cy="150" cx="2460" /><circle class="commit framework upgrades commit2" r="10" cy="100" cx="2510" /><circle class="commit talk commit1" r="9" cy="50" cx="2560" /><circle class="commit commit-merge talk commit1" r="6" cy="50" cx="2560" /><circle class="commit reveal.js commit1" r="10" cy="50" cx="2610" /><circle class="commit emmet commit1" r="10" cy="50" cx="2660" /><circle class="commit mermaid.js commit1" r="10" cy="50" cx="2710" /><circle class="commit sozi commit1" r="10" cy="50" cx="2760" /><circle class="commit github pages commit1" r="10" cy="50" cx="2810" /><circle class="commit &#127908; futurise commit0" r="9" cy="0" cx="2860" /><circle class="commit commit-merge &#127908; futurise commit0" r="6" cy="0" cx="2860" /><circle class="commit   commit3" r="10" cy="150" cx="2910" /></g><g class="commit-labels"><g><rect height="14" width="52.828125" y="163.5" x="-16.4140625" class="commit-label-bkg" /><text class="commit-label" y="175" x="-14.4140625">long time ago</text></g><g><rect height="14" width="76.5625" y="13.5" x="21.71875" class="commit-label-bkg" /><text class="commit-label" y="25" x="23.71875">architect @ big corp</text></g><g><rect height="14" width="20.78125" y="163.5" x="99.609375" class="commit-label-bkg" /><text class="commit-label" y="175" x="101.609375">2016</text></g><g><rect height="16" width="32.71875" y="113.5" x="143.640625" class="commit-label-bkg" /><text class="commit-label" y="125" x="145.640625">&#129305; idea</text></g><g><rect height="14" width="60.046875" y="113.5" x="179.9765625" class="commit-label-bkg" /><text class="commit-label" y="125" x="181.9765625">Play framework</text></g><g><rect height="14" width="21.96875" y="113.5" x="249.015625" class="commit-label-bkg" /><text class="commit-label" y="125" x="251.015625">scala</text></g><g><rect height="14" width="53.453125" y="13.5" x="283.2734375" class="commit-label-bkg" /><text class="commit-label" y="25" x="285.2734375">dev @ startup</text></g><g><rect height="14" width="23.65625" y="13.5" x="348.171875" class="commit-label-bkg" /><text class="commit-label" y="25" x="350.171875">Spark</text></g><g><rect height="14" width="20.78125" y="163.5" x="399.609375" class="commit-label-bkg" /><text class="commit-label" y="175" x="401.609375">2017</text></g><g><rect height="16" width="34.484375" y="163.5" x="442.7578125" class="commit-label-bkg" /><text class="commit-label" y="175" x="444.7578125">&#128118; baby</text></g><g><rect height="14" width="50.1171875" y="13.5" x="484.94140625" class="commit-label-bkg" /><text class="commit-label" y="25" x="486.94140625">Scala.io conf</text></g><g><rect height="14" width="29.625" y="113.5" x="545.1875" class="commit-label-bkg" /><text class="commit-label" y="125" x="547.1875">ScalaJs</text></g><g><rect height="14" width="20.78125" y="163.5" x="599.609375" class="commit-label-bkg" /><text class="commit-label" y="175" x="601.609375">2018</text></g><g><rect height="14" width="40.71875" y="13.5" x="639.640625" class="commit-label-bkg" /><text class="commit-label" y="25" x="641.640625">Typescript</text></g><g><rect height="14" width="31.15625" y="113.5" x="744.421875" class="commit-label-bkg" /><text class="commit-label" y="125" x="746.421875">Angular</text></g><g><rect height="14" width="21.140625" y="113.5" x="799.4296875" class="commit-label-bkg" /><text class="commit-label" y="125" x="801.4296875">Ionic</text></g><g><rect height="14" width="36.015625" y="13.5" x="841.9921875" class="commit-label-bkg" /><text class="commit-label" y="25" x="843.9921875">MongoDb</text></g><g><rect height="14" width="36.640625" y="113.5" x="891.6796875" class="commit-label-bkg" /><text class="commit-label" y="125" x="893.6796875">MeteorJS</text></g><g><rect height="14" width="49.734375" y="13.5" x="935.1328125" class="commit-label-bkg" /><text class="commit-label" y="25" x="937.1328125">dev @ Criteo</text></g><g><rect height="16" width="62.09375" y="163.5" x="1028.953125" class="commit-label-bkg" /><text class="commit-label" y="175" x="1030.953125">&#127969; rent a house</text></g><g><rect height="14" width="20.78125" y="163.5" x="1099.609375" class="commit-label-bkg" /><text class="commit-label" y="175" x="1101.609375">2019</text></g><g><rect height="14" width="44.921875" y="13.5" x="1137.5390625" class="commit-label-bkg" /><text class="commit-label" y="25" x="1139.5390625">CGrowth UI</text></g><g><rect height="14" width="20.78125" y="163.5" x="1199.609375" class="commit-label-bkg" /><text class="commit-label" y="175" x="1201.609375">2020</text></g><g><rect height="14" width="29.46875" y="113.5" x="1245.265625" class="commit-label-bkg" /><text class="commit-label" y="125" x="1247.265625">Leaflet</text></g><g><rect height="14" width="66.703125" y="13.5" x="1276.6484375" class="commit-label-bkg" /><text class="commit-label" y="25" x="1278.6484375">Geoloc audiences</text></g><g><rect height="14" width="20.78125" y="163.5" x="1349.609375" class="commit-label-bkg" /><text class="commit-label" y="175" x="1351.609375">2021</text></g><g><rect height="14" width="72.40625" y="13.5" x="1373.796875" class="commit-label-bkg" /><text class="commit-label" y="25" x="1375.796875">User Data Platform</text></g><g><rect height="14" width="54.609375" y="113.5" x="1432.6953125" class="commit-label-bkg" /><text class="commit-label" y="125" x="1434.6953125">github actions</text></g><g><rect height="14" width="30.796875" y="13.5" x="1494.6015625" class="commit-label-bkg" /><text class="commit-label" y="25" x="1496.6015625">OneKey</text></g><g><rect height="14" width="112.59375" y="113.5" x="1503.703125" class="commit-label-bkg" /><text class="commit-label" y="125" x="1505.703125">data validation - strong typing</text></g><g><rect height="14" width="63.296875" y="63.5" x="1578.3515625" class="commit-label-bkg" /><text class="commit-label" y="75" x="1580.3515625">schema-to-types</text></g><g><rect height="14" width="54.59375" y="13.5" x="1632.703125" class="commit-label-bkg" /><text class="commit-label" y="25" x="1634.703125">JSON schemas</text></g><g><rect height="14" width="40.4375" y="63.5" x="1739.78125" class="commit-label-bkg" /><text class="commit-label" y="75" x="1741.78125">consulting</text></g><g><rect height="14" width="20.78125" y="163.5" x="1799.609375" class="commit-label-bkg" /><text class="commit-label" y="175" x="1801.609375">2022</text></g><g><rect height="14" width="69.109375" y="63.5" x="1875.4453125" class="commit-label-bkg" /><text class="commit-label" y="75" x="1877.4453125">waterspot-catalog</text></g><g><rect height="14" width="20.78125" y="163.5" x="1999.609375" class="commit-label-bkg" /><text class="commit-label" y="175" x="2001.609375">2023</text></g><g><rect height="14" width="56.75" y="63.5" x="2031.625" class="commit-label-bkg" /><text class="commit-label" y="75" x="2033.625">a-place-to-live</text></g><g><rect height="16" width="59.84375" y="163.5" x="2130.078125" class="commit-label-bkg" /><text class="commit-label" y="175" x="2132.078125">&#127969; buy a house</text></g><g><rect height="14" width="20.78125" y="163.5" x="2199.609375" class="commit-label-bkg" /><text class="commit-label" y="175" x="2201.609375">2024</text></g><g><rect height="14" width="35.265625" y="113.5" x="2242.3671875" class="commit-label-bkg" /><text class="commit-label" y="125" x="2244.3671875">ImageKit</text></g><g><rect height="14" width="44.0625" y="113.5" x="2287.96875" class="commit-label-bkg" /><text class="commit-label" y="125" x="2289.96875">open graph</text></g><g><rect height="14" width="16.359375" y="113.5" x="2351.8203125" class="commit-label-bkg" /><text class="commit-label" y="125" x="2353.8203125">SSR</text></g><g><rect height="14" width="34.984375" y="13.5" x="2392.5078125" class="commit-label-bkg" /><text class="commit-label" y="25" x="2394.5078125">Dev lead</text></g><g><rect height="14" width="20.78125" y="163.5" x="2449.609375" class="commit-label-bkg" /><text class="commit-label" y="175" x="2451.609375">2025</text></g><g><rect height="14" width="77.296875" y="113.5" x="2471.3515625" class="commit-label-bkg" /><text class="commit-label" y="125" x="2473.3515625">framework upgrades</text></g><g><rect height="14" width="17.78125" y="63.5" x="2551.109375" class="commit-label-bkg" /><text class="commit-label" y="75" x="2553.109375">talk</text></g><g><rect height="14" width="35.4375" y="63.5" x="2592.28125" class="commit-label-bkg" /><text class="commit-label" y="75" x="2594.28125">reveal.js</text></g><g><rect height="14" width="29.1875" y="63.5" x="2645.40625" class="commit-label-bkg" /><text class="commit-label" y="75" x="2647.40625">emmet</text></g><g><rect height="14" width="44.8125" y="63.5" x="2687.59375" class="commit-label-bkg" /><text class="commit-label" y="75" x="2689.59375">mermaid.js</text></g><g><rect height="14" width="17.609375" y="63.5" x="2751.1953125" class="commit-label-bkg" /><text class="commit-label" y="75" x="2753.1953125">sozi</text></g><g><rect height="14" width="49.359375" y="63.5" x="2785.3203125" class="commit-label-bkg" /><text class="commit-label" y="75" x="2787.3203125">github pages</text></g><g><rect height="16" width="45.28125" y="13.5" x="2837.359375" class="commit-label-bkg" /><text class="commit-label" y="25" x="2839.359375">&#127908; futurise</text></g><g><rect height="4" width="4" y="163.5" x="2908" class="commit-label-bkg" /><text class="commit-label" y="175" x="2910"> </text></g></g><defs><linearGradient id="gradient-opacity" x1="0%" y1="0%" x2="100%" y2="0%"><stop offset="0%" style="stop-color:white;stop-opacity:0" /><stop offset="2%" style="stop-color:white;stop-opacity:1" /></linearGradient></defs><g inkscape:label="Mask" id="mask" inkscape:groupmode="layer"><rect x="-112.390625" y="-19" width="100%" height="100%" fill="url(#gradient-opacity)" /></g></svg>