<svg aria-roledescription="gitGraph" role="graphics-document document" viewBox="-142.390625 -19 3000.390625 374.8559875488281" style="max-width: 3000.39px; background-color: white;" xmlns:xlink="http://www.w3.org/1999/xlink" xmlns="http://www.w3.org/2000/svg" width="100%" id="my-svg"><style>#my-svg{font-family:"trebuchet ms",verdana,arial,sans-serif;font-size:16px;fill:#333;}#my-svg .error-icon{fill:hsl(220.5882352941, 100%, 98.3333333333%);}#my-svg .error-text{fill:rgb(8.5000000002, 5.7500000001, 0);stroke:rgb(8.5000000002, 5.7500000001, 0);}#my-svg .edge-thickness-normal{stroke-width:1px;}#my-svg .edge-thickness-thick{stroke-width:3.5px;}#my-svg .edge-pattern-solid{stroke-dasharray:0;}#my-svg .edge-thickness-invisible{stroke-width:0;fill:none;}#my-svg .edge-pattern-dashed{stroke-dasharray:3;}#my-svg .edge-pattern-dotted{stroke-dasharray:2;}#my-svg .marker{fill:#0b0b0b;stroke:#0b0b0b;}#my-svg .marker.cross{stroke:#0b0b0b;}#my-svg svg{font-family:"trebuchet ms",verdana,arial,sans-serif;font-size:16px;}#my-svg p{margin:0;}#my-svg .commit-id,#my-svg .commit-msg,#my-svg .branch-label{fill:lightgrey;color:lightgrey;font-family:'trebuchet ms',verdana,arial,sans-serif;font-family:var(--mermaid-font-family);}#my-svg .branch-label0{fill:#333;}#my-svg .commit0{stroke:hsl(40.5882352941, 100%, 68.3333333333%);fill:hsl(40.5882352941, 100%, 68.3333333333%);}#my-svg .commit-highlight0{stroke:rgb(0, 52.2500000001, 161.5000000002);fill:rgb(0, 52.2500000001, 161.5000000002);}#my-svg .label0{fill:hsl(40.5882352941, 100%, 68.3333333333%);}#my-svg .arrow0{stroke:hsl(40.5882352941, 100%, 68.3333333333%);}#my-svg .branch-label1{fill:#333;}#my-svg .commit1{stroke:hsl(-79.4117647059, 100%, 68.3333333333%);fill:hsl(-79.4117647059, 100%, 68.3333333333%);}#my-svg .commit-highlight1{stroke:rgb(52.2500000001, 161.5000000002, 0);fill:rgb(52.2500000001, 161.5000000002, 0);}#my-svg .label1{fill:hsl(-79.4117647059, 100%, 68.3333333333%);}#my-svg .arrow1{stroke:hsl(-79.4117647059, 100%, 68.3333333333%);}#my-svg .branch-label2{fill:#333;}#my-svg .commit2{stroke:hsl(220.5882352941, 100%, 73.3333333333%);fill:hsl(220.5882352941, 100%, 73.3333333333%);}#my-svg .commit-highlight2{stroke:rgb(136.0000000002, 92.0000000001, 0);fill:rgb(136.0000000002, 92.0000000001, 0);}#my-svg .label2{fill:hsl(220.5882352941, 100%, 73.3333333333%);}#my-svg .arrow2{stroke:hsl(220.5882352941, 100%, 73.3333333333%);}#my-svg .branch-label3{fill:#333;}#my-svg .commit3{stroke:hsl(10.5882352941, 100%, 68.3333333333%);fill:hsl(10.5882352941, 100%, 68.3333333333%);}#my-svg .commit-highlight3{stroke:rgb(0, 133.0000000002, 161.5000000002);fill:rgb(0, 133.0000000002, 161.5000000002);}#my-svg .label3{fill:hsl(10.5882352941, 100%, 68.3333333333%);}#my-svg .arrow3{stroke:hsl(10.5882352941, 100%, 68.3333333333%);}#my-svg .branch-label4{fill:#333;}#my-svg .commit4{stroke:hsl(-19.4117647059, 100%, 68.3333333333%);fill:hsl(-19.4117647059, 100%, 68.3333333333%);}#my-svg .commit-highlight4{stroke:rgb(0, 161.5000000002, 109.2500000001);fill:rgb(0, 161.5000000002, 109.2500000001);}#my-svg .label4{fill:hsl(-19.4117647059, 100%, 68.3333333333%);}#my-svg .arrow4{stroke:hsl(-19.4117647059, 100%, 68.3333333333%);}#my-svg .branch-label5{fill:#333;}#my-svg .commit5{stroke:hsl(-49.4117647059, 100%, 68.3333333333%);fill:hsl(-49.4117647059, 100%, 68.3333333333%);}#my-svg .commit-highlight5{stroke:rgb(0, 161.5000000002, 28.5);fill:rgb(0, 161.5000000002, 28.5);}#my-svg .label5{fill:hsl(-49.4117647059, 100%, 68.3333333333%);}#my-svg .arrow5{stroke:hsl(-49.4117647059, 100%, 68.3333333333%);}#my-svg .branch-label6{fill:#333;}#my-svg .commit6{stroke:hsl(100.5882352941, 100%, 68.3333333333%);fill:hsl(100.5882352941, 100%, 68.3333333333%);}#my-svg .commit-highlight6{stroke:rgb(109.2500000001, 0, 161.5000000002);fill:rgb(109.2500000001, 0, 161.5000000002);}#my-svg .label6{fill:hsl(100.5882352941, 100%, 68.3333333333%);}#my-svg .arrow6{stroke:hsl(100.5882352941, 100%, 68.3333333333%);}#my-svg .branch-label7{fill:#333;}#my-svg .commit7{stroke:hsl(160.5882352941, 100%, 68.3333333333%);fill:hsl(160.5882352941, 100%, 68.3333333333%);}#my-svg .commit-highlight7{stroke:rgb(161.5000000002, 0, 52.2500000001);fill:rgb(161.5000000002, 0, 52.2500000001);}#my-svg .label7{fill:hsl(160.5882352941, 100%, 68.3333333333%);}#my-svg .arrow7{stroke:hsl(160.5882352941, 100%, 68.3333333333%);}#my-svg .branch{stroke-width:1;stroke:#0b0b0b;stroke-dasharray:2;}#my-svg .commit-label{font-size:10px;fill:rgb(11.0000000001, 34.0000000002, 0);}#my-svg .commit-label-bkg{font-size:10px;fill:hsl(-79.4117647059, 100%, 93.3333333333%);opacity:0.5;}#my-svg .tag-label{font-size:10px;fill:#333;}#my-svg .tag-label-bkg{fill:#fff4dd;stroke:hsl(40.5882352941, 60%, 83.3333333333%);}#my-svg .tag-hole{fill:#333;}#my-svg .commit-merge{stroke:#fff4dd;fill:#fff4dd;}#my-svg .commit-reverse{stroke:#fff4dd;fill:#fff4dd;stroke-width:3;}#my-svg .commit-highlight-inner{stroke:#fff4dd;fill:#fff4dd;}#my-svg .arrow{stroke-width:8;stroke-linecap:round;fill:none;}#my-svg .gitTitleText{text-anchor:middle;font-size:18px;fill:#333;}#my-svg :root{--mermaid-font-family:"trebuchet ms",verdana,arial,sans-serif;}</style><g/><g class="commit-bullets"/><g class="commit-labels"/><g><line class="branch branch0" y2="0" x2="2850" y1="0" x1="0"/><rect transform="translate(-19, -9.5)" height="23" width="52.78125" y="-1.5" x="-68.78125" ry="4" rx="4" class="branchLabelBkg label0"/><g class="branchLabel"><g transform="translate(-78.78125, -10.5)" class="label branch-label0"><text><tspan class="row" x="0" dy="1em" xml:space="preserve">work</tspan></text></g></g><line class="branch branch1" y2="90" x2="2850" y1="90" x1="0"/><rect transform="translate(-19, 80.5)" height="23" width="50.25" y="-1.5" x="-66.25" ry="4" rx="4" class="branchLabelBkg label1"/><g class="branchLabel"><g transform="translate(-76.25, 79.5)" class="label branch-label1"><text><tspan class="row" x="0" dy="1em" xml:space="preserve">misc</tspan></text></g></g><line class="branch branch2" y2="180" x2="2850" y1="180" x1="0"/><rect transform="translate(-19, 170.5)" height="23" width="99.390625" y="-1.5" x="-115.390625" ry="4" rx="4" class="branchLabelBkg label2"/><g class="branchLabel"><g transform="translate(-125.390625, 169.5)" class="label branch-label2"><text><tspan class="row" x="0" dy="1em" xml:space="preserve">pet project</tspan></text></g></g><line class="branch branch3" y2="270" x2="2850" y1="270" x1="0"/><rect transform="translate(-19, 260.5)" height="23" width="50.921875" y="-1.5" x="-66.921875" ry="4" rx="4" class="branchLabelBkg label3"/><g class="branchLabel"><g transform="translate(-76.921875, 259.5)" class="label branch-label3"><text><tspan class="row" x="0" dy="1em" xml:space="preserve">time</tspan></text></g></g></g><g class="commit-arrows"><path class="arrow arrow3" d="M 10 270 L 60 270"/><path class="arrow arrow2" d="M 60 270 L 60 200 A 20 20, 0, 0, 1, 80 180 L 160 180"/><path class="arrow arrow2" d="M 160 180 L 210 180"/><path class="arrow arrow1" d="M 210 180 L 210 110 A 20 20, 0, 0, 1, 230 90 L 260 90"/><path class="arrow arrow0" d="M 110 0 L 310 0"/><path class="arrow arrow1" d="M 260 90 L 290 90 A 20 20, 0, 0, 0, 310 70 L 310 0"/><path class="arrow arrow3" d="M 60 270 L 360 270"/><path class="arrow arrow1" d="M 260 90 L 410 90"/><path class="arrow arrow0" d="M 310 0 L 460 0"/><path class="arrow arrow2" d="M 210 180 L 510 180"/><path class="arrow arrow0" d="M 460 0 L 490 0 A 20 20, 0, 0, 1, 510 20 L 510 180"/><path class="arrow arrow2" d="M 510 180 L 560 180"/><path class="arrow arrow1" d="M 410 90 L 410 125 A 10 10, 0, 0, 0, 420 135 L 550 135 A 10 10, 0, 0, 1, 560 145 L 560 180"/><path class="arrow arrow3" d="M 360 270 L 610 270"/><path class="arrow arrow3" d="M 610 270 L 660 270"/><path class="arrow arrow0" d="M 460 0 L 710 0"/><path class="arrow arrow1" d="M 410 90 L 690 90 A 20 20, 0, 0, 0, 710 70 L 710 0"/><path class="arrow arrow0" d="M 710 0 L 760 0"/><path class="arrow arrow3" d="M 660 270 L 810 270"/><path class="arrow arrow0" d="M 760 0 L 790 0 A 20 20, 0, 0, 1, 810 20 L 810 270"/><path class="arrow arrow3" d="M 810 270 L 860 270"/><path class="arrow arrow3" d="M 860 270 L 910 270"/><path class="arrow arrow2" d="M 560 180 L 960 180"/><path class="arrow arrow2" d="M 960 180 L 1010 180"/><path class="arrow arrow0" d="M 760 0 L 1060 0"/><path class="arrow arrow2" d="M 1010 180 L 1040 180 A 20 20, 0, 0, 0, 1060 160 L 1060 0"/><path class="arrow arrow3" d="M 910 270 L 1110 270"/><path class="arrow arrow2" d="M 1010 180 L 1160 180"/><path class="arrow arrow0" d="M 1060 0 L 1210 0"/><path class="arrow arrow2" d="M 1160 180 L 1190 180 A 20 20, 0, 0, 0, 1210 160 L 1210 0"/><path class="arrow arrow2" d="M 1160 180 L 1260 180"/><path class="arrow arrow0" d="M 1210 0 L 1310 0"/><path class="arrow arrow2" d="M 1260 180 L 1290 180 A 20 20, 0, 0, 0, 1310 160 L 1310 0"/><path class="arrow arrow3" d="M 1110 270 L 1360 270"/><path class="arrow arrow2" d="M 1260 180 L 1410 180"/><path class="arrow arrow0" d="M 1310 0 L 1460 0"/><path class="arrow arrow2" d="M 1410 180 L 1440 180 A 20 20, 0, 0, 0, 1460 160 L 1460 0"/><path class="arrow arrow2" d="M 1410 180 L 1510 180"/><path class="arrow arrow2" d="M 1510 180 L 1560 180"/><path class="arrow arrow1" d="M 410 90 L 1610 90"/><path class="arrow arrow2" d="M 1560 180 L 1590 180 A 20 20, 0, 0, 0, 1610 160 L 1610 90"/><path class="arrow arrow0" d="M 1460 0 L 1660 0"/><path class="arrow arrow1" d="M 1610 90 L 1640 90 A 20 20, 0, 0, 0, 1660 70 L 1660 0"/><path class="arrow arrow2" d="M 1560 180 L 1710 180"/><path class="arrow arrow1" d="M 1610 90 L 1690 90 A 20 20, 0, 0, 1, 1710 110 L 1710 180"/><path class="arrow arrow3" d="M 1360 270 L 1760 270"/><path class="arrow arrow1" d="M 1610 90 L 1810 90"/><path class="arrow arrow2" d="M 1710 180 L 1790 180 A 20 20, 0, 0, 0, 1810 160 L 1810 90"/><path class="arrow arrow2" d="M 1710 180 L 1860 180"/><path class="arrow arrow1" d="M 1810 90 L 1840 90 A 20 20, 0, 0, 1, 1860 110 L 1860 180"/><path class="arrow arrow3" d="M 1760 270 L 1910 270"/><path class="arrow arrow2" d="M 1860 180 L 1960 180"/><path class="arrow arrow2" d="M 1960 180 L 2010 180"/><path class="arrow arrow1" d="M 1810 90 L 2060 90"/><path class="arrow arrow2" d="M 2010 180 L 2040 180 A 20 20, 0, 0, 0, 2060 160 L 2060 90"/><path class="arrow arrow2" d="M 2010 180 L 2110 180"/><path class="arrow arrow1" d="M 2060 90 L 2090 90 A 20 20, 0, 0, 1, 2110 110 L 2110 180"/><path class="arrow arrow1" d="M 2060 90 L 2160 90"/><path class="arrow arrow2" d="M 2110 180 L 2140 180 A 20 20, 0, 0, 0, 2160 160 L 2160 90"/><path class="arrow arrow2" d="M 2110 180 L 2210 180"/><path class="arrow arrow1" d="M 2160 90 L 2190 90 A 20 20, 0, 0, 1, 2210 110 L 2210 180"/><path class="arrow arrow3" d="M 1910 270 L 2260 270"/><path class="arrow arrow1" d="M 2160 90 L 2240 90 A 20 20, 0, 0, 1, 2260 110 L 2260 270"/><path class="arrow arrow2" d="M 2210 180 L 2310 180"/><path class="arrow arrow3" d="M 2260 270 L 2360 270"/><path class="arrow arrow2" d="M 2310 180 L 2410 180"/><path class="arrow arrow2" d="M 2410 180 L 2460 180"/><path class="arrow arrow3" d="M 2360 270 L 2510 270"/><path class="arrow arrow1" d="M 2160 90 L 2560 90"/><path class="arrow arrow2" d="M 2460 180 L 2540 180 A 20 20, 0, 0, 0, 2560 160 L 2560 90"/><path class="arrow arrow1" d="M 2560 90 L 2610 90"/><path class="arrow arrow1" d="M 2610 90 L 2660 90"/><path class="arrow arrow1" d="M 2660 90 L 2710 90"/><path class="arrow arrow1" d="M 2710 90 L 2760 90"/><path class="arrow arrow0" d="M 1660 0 L 2810 0"/><path class="arrow arrow1" d="M 2760 90 L 2790 90 A 20 20, 0, 0, 0, 2810 70 L 2810 0"/></g><g class="commit-bullets"><circle class="commit long time ago commit3" r="10" cy="270" cx="10"/><circle class="commit 2016 commit3" r="10" cy="270" cx="60"/><rect class="commit adtech startup commit-highlight0 commit-highlight-outer" height="20" width="20" y="-10" x="100"/><rect class="commit adtech startup commit0 commit-highlight-inner" height="12" width="12" y="-6" x="104"/><circle class="commit 🤙 idea commit2" r="10" cy="180" cx="160"/><rect class="commit Play framework commit-highlight2 commit-highlight-outer" height="20" width="20" y="170" x="200"/><rect class="commit Play framework commit2 commit-highlight-inner" height="12" width="12" y="174" x="204"/><circle class="commit scala commit1" r="10" cy="90" cx="260"/><circle class="commit Spark commit0" r="9" cy="0" cx="310"/><circle class="commit commit-merge Spark commit0" r="6" cy="0" cx="310"/><circle class="commit 2017 commit3" r="10" cy="270" cx="360"/><circle class="commit .grib files commit1" r="10" cy="90" cx="410"/><circle class="commit MongoDb commit0" r="10" cy="0" cx="460"/><rect class="commit MeteorJS commit-highlight2 commit-highlight-outer" height="20" width="20" y="170" x="500"/><rect class="commit MeteorJS commit2 commit-highlight-inner" height="12" width="12" y="174" x="504"/><circle class="commit Ionic commit2" r="9" cy="180" cx="560"/><circle class="commit commit-merge Ionic commit2" r="6" cy="180" cx="560"/><rect class="commit 👶 baby commit-highlight3 commit-highlight-outer" height="20" width="20" y="260" x="600"/><rect class="commit 👶 baby commit3 commit-highlight-inner" height="12" width="12" y="264" x="604"/><circle class="commit 2018 commit3" r="10" cy="270" cx="660"/><circle class="commit Scala.io conference commit0" r="9" cy="0" cx="710"/><circle class="commit commit-merge Scala.io conference commit0" r="6" cy="0" cx="710"/><rect class="commit Criteo commit-highlight0 commit-highlight-outer" height="20" width="20" y="-10" x="750"/><rect class="commit Criteo commit0 commit-highlight-inner" height="12" width="12" y="-6" x="754"/><rect class="commit 👔 new job commit-highlight3 commit-highlight-outer" height="20" width="20" y="260" x="800"/><rect class="commit 👔 new job commit3 commit-highlight-inner" height="12" width="12" y="264" x="804"/><rect class="commit 🏡 rent a house commit-highlight3 commit-highlight-outer" height="20" width="20" y="260" x="850"/><rect class="commit 🏡 rent a house commit3 commit-highlight-inner" height="12" width="12" y="264" x="854"/><circle class="commit 2019 commit3" r="10" cy="270" cx="910"/><circle class="commit Angular commit2" r="10" cy="180" cx="960"/><circle class="commit Typescript commit2" r="10" cy="180" cx="1010"/><circle class="commit CGrowth UI commit0" r="9" cy="0" cx="1060"/><circle class="commit commit-merge CGrowth UI commit0" r="6" cy="0" cx="1060"/><circle class="commit 2020 commit3" r="10" cy="270" cx="1110"/><circle class="commit Leaflet commit2" r="10" cy="180" cx="1160"/><circle class="commit Geoloc audiences commit0" r="9" cy="0" cx="1210"/><circle class="commit commit-merge Geoloc audiences commit0" r="6" cy="0" cx="1210"/><circle class="commit notifications commit2" r="10" cy="180" cx="1260"/><circle class="commit CGrowth alerts commit0" r="9" cy="0" cx="1310"/><circle class="commit commit-merge CGrowth alerts commit0" r="6" cy="0" cx="1310"/><circle class="commit 2021 commit3" r="10" cy="270" cx="1360"/><circle class="commit github actions commit2" r="10" cy="180" cx="1410"/><circle class="commit OneKey commit0" r="9" cy="0" cx="1460"/><circle class="commit commit-merge OneKey commit0" r="6" cy="0" cx="1460"/><circle class="commit data validation commit2" r="10" cy="180" cx="1510"/><circle class="commit strong typing commit2" r="10" cy="180" cx="1560"/><circle class="commit schema-to-types commit1" r="9" cy="90" cx="1610"/><circle class="commit commit-merge schema-to-types commit1" r="6" cy="90" cx="1610"/><circle class="commit JSON schemas commit0" r="9" cy="0" cx="1660"/><circle class="commit commit-merge JSON schemas commit0" r="6" cy="0" cx="1660"/><circle class="commit 34-5ca08b0 commit2" r="9" cy="180" cx="1710"/><circle class="commit commit-merge 34-5ca08b0 commit2" r="6" cy="180" cx="1710"/><circle class="commit 2022 commit3" r="10" cy="270" cx="1760"/><circle class="commit consulting commit1" r="9" cy="90" cx="1810"/><circle class="commit commit-merge consulting commit1" r="6" cy="90" cx="1810"/><circle class="commit 37-e6eca1d commit2" r="9" cy="180" cx="1860"/><circle class="commit commit-merge 37-e6eca1d commit2" r="6" cy="180" cx="1860"/><circle class="commit 2023 commit3" r="10" cy="270" cx="1910"/><circle class="commit open data commit2" r="10" cy="180" cx="1960"/><circle class="commit web crawler commit2" r="10" cy="180" cx="2010"/><circle class="commit waterspot-catalog commit1" r="9" cy="90" cx="2060"/><circle class="commit commit-merge waterspot-catalog commit1" r="6" cy="90" cx="2060"/><circle class="commit 42-3c5afbd commit2" r="9" cy="180" cx="2110"/><circle class="commit commit-merge 42-3c5afbd commit2" r="6" cy="180" cx="2110"/><circle class="commit a-place-to-live commit1" r="9" cy="90" cx="2160"/><circle class="commit commit-merge a-place-to-live commit1" r="6" cy="90" cx="2160"/><circle class="commit 44-18d4e9a commit2" r="9" cy="180" cx="2210"/><circle class="commit commit-merge 44-18d4e9a commit2" r="6" cy="180" cx="2210"/><rect class="commit 🏡 buy a house commit-highlight3 commit-highlight-outer" height="20" width="20" y="260" x="2250"/><rect class="commit 🏡 buy a house commit3 commit-highlight-inner" height="12" width="12" y="264" x="2254"/><circle class="commit ImageKit commit2" r="10" cy="180" cx="2310"/><circle class="commit 2024 commit3" r="10" cy="270" cx="2360"/><circle class="commit open graph commit2" r="10" cy="180" cx="2410"/><circle class="commit server side rendering commit2" r="10" cy="180" cx="2460"/><circle class="commit 2025 commit3" r="10" cy="270" cx="2510"/><circle class="commit talk commit1" r="9" cy="90" cx="2560"/><circle class="commit commit-merge talk commit1" r="6" cy="90" cx="2560"/><circle class="commit reveal.js commit1" r="10" cy="90" cx="2610"/><circle class="commit emmet commit1" r="10" cy="90" cx="2660"/><circle class="commit mermaid.js commit1" r="10" cy="90" cx="2710"/><circle class="commit sozi commit1" r="10" cy="90" cx="2760"/><circle class="commit 🎤 futurise commit0" r="9" cy="0" cx="2810"/><circle class="commit commit-merge 🎤 futurise commit0" r="6" cy="0" cx="2810"/></g><g class="commit-labels"><g transform="translate(-34.497812499999995, 30.7559375) rotate(-45, 0, 270)"><rect height="15.05078125" width="65.046875" y="283.5" x="-22.5234375" class="commit-label-bkg"/><text class="commit-label" y="295" x="-20.5234375">long time ago</text></g><g transform="translate(-19.2740625, 17.1346875) rotate(-45, 50, 270)"><rect height="15" width="24.984375" y="283.5" x="47.5078125" class="commit-label-bkg"/><text class="commit-label" y="295" x="49.5078125">2016</text></g><g transform="translate(-36.314687500000005, 32.3815625) rotate(-45, 100, 0)"><rect height="15.05078125" width="69.828125" y="13.5" x="75.0859375" class="commit-label-bkg"/><text class="commit-label" y="25" x="77.0859375">adtech startup</text></g><g transform="translate(-25.039375, 22.293125) rotate(-45, 150, 180)"><rect height="19" width="40.15625" y="193.5" x="139.921875" class="commit-label-bkg"/><text class="commit-label" y="205" x="141.921875">🤙 idea</text></g><g transform="translate(-37.92375, 33.821250000000006) rotate(-45, 200, 180)"><rect height="15.05078125" width="74.0625" y="193.5" x="172.96875" class="commit-label-bkg"/><text class="commit-label" y="205" x="174.96875">Play framework</text></g><g transform="translate(-19.838125, 17.639375) rotate(-45, 250, 90)"><rect height="15" width="26.46875" y="103.5" x="246.765625" class="commit-label-bkg"/><text class="commit-label" y="115" x="248.765625">scala</text></g><g transform="translate(-20.6396875, 18.356562500000003) rotate(-45, 300, 0)"><rect height="15.05078125" width="28.578125" y="13.5" x="295.7109375" class="commit-label-bkg"/><text class="commit-label" y="25" x="297.7109375">Spark</text></g><g transform="translate(-19.2740625, 17.1346875) rotate(-45, 350, 270)"><rect height="15" width="24.984375" y="283.5" x="347.5078125" class="commit-label-bkg"/><text class="commit-label" y="295" x="349.5078125">2017</text></g><g transform="translate(-27.6459375, 24.6253125) rotate(-45, 400, 90)"><rect height="15.05078125" width="47.015625" y="103.5" x="386.4921875" class="commit-label-bkg"/><text class="commit-label" y="115" x="388.4921875">.grib files</text></g><g transform="translate(-26.505937499999998, 23.6053125) rotate(-45, 450, 0)"><rect height="15.05078125" width="44.015625" y="13.5" x="437.9921875" class="commit-label-bkg"/><text class="commit-label" y="25" x="439.9921875">MongoDb</text></g><g transform="translate(-26.802812499999998, 23.8709375) rotate(-45, 500, 180)"><rect height="15" width="44.796875" y="193.5" x="487.6015625" class="commit-label-bkg"/><text class="commit-label" y="205" x="489.6015625">MeteorJS</text></g><g transform="translate(-19.440312499999997, 17.2834375) rotate(-45, 550, 180)"><rect height="15" width="25.421875" y="193.5" x="547.2890625" class="commit-label-bkg"/><text class="commit-label" y="205" x="549.2890625">Ionic</text></g><g transform="translate(-25.870625, 23.036875000000002) rotate(-45, 600, 270)"><rect height="19" width="42.34375" y="283.5" x="588.828125" class="commit-label-bkg"/><text class="commit-label" y="295" x="590.828125">👶 baby</text></g><g transform="translate(-19.2740625, 17.1346875) rotate(-45, 650, 270)"><rect height="15" width="24.984375" y="283.5" x="647.5078125" class="commit-label-bkg"/><text class="commit-label" y="295" x="649.5078125">2018</text></g><g transform="translate(-44.8409375, 40.0103125) rotate(-45, 700, 0)"><rect height="15" width="92.265625" y="13.5" x="663.8671875" class="commit-label-bkg"/><text class="commit-label" y="25" x="665.8671875">Scala.io conference</text></g><g transform="translate(-21.7559375, 19.3553125) rotate(-45, 750, 0)"><rect height="15" width="31.515625" y="13.5" x="744.2421875" class="commit-label-bkg"/><text class="commit-label" y="25" x="746.2421875">Criteo</text></g><g transform="translate(-31.44, 28.02) rotate(-45, 800, 270)"><rect height="19" width="57" y="283.5" x="781.5" class="commit-label-bkg"/><text class="commit-label" y="295" x="783.5">👔 new job</text></g><g transform="translate(-38.986562500000005, 34.7721875) rotate(-45, 850, 270)"><rect height="19" width="76.859375" y="283.5" x="821.5703125" class="commit-label-bkg"/><text class="commit-label" y="295" x="823.5703125">🏡 rent a house</text></g><g transform="translate(-19.2740625, 17.1346875) rotate(-45, 900, 270)"><rect height="15" width="24.984375" y="283.5" x="897.5078125" class="commit-label-bkg"/><text class="commit-label" y="295" x="899.5078125">2019</text></g><g transform="translate(-24.19625, 21.53875) rotate(-45, 950, 180)"><rect height="15.05078125" width="37.9375" y="193.5" x="941.03125" class="commit-label-bkg"/><text class="commit-label" y="205" x="943.03125">Angular</text></g><g transform="translate(-28.738437500000003, 25.6028125) rotate(-45, 1000, 180)"><rect height="15.05078125" width="49.890625" y="193.5" x="985.0546875" class="commit-label-bkg"/><text class="commit-label" y="205" x="987.0546875">Typescript</text></g><g transform="translate(-30.739375, 27.393125) rotate(-45, 1050, 0)"><rect height="15" width="55.15625" y="13.5" x="1032.421875" class="commit-label-bkg"/><text class="commit-label" y="25" x="1034.421875">CGrowth UI</text></g><g transform="translate(-19.2740625, 17.1346875) rotate(-45, 1100, 270)"><rect height="15" width="24.984375" y="283.5" x="1097.5078125" class="commit-label-bkg"/><text class="commit-label" y="295" x="1099.5078125">2020</text></g><g transform="translate(-23.400625, 20.826875) rotate(-45, 1150, 180)"><rect height="15" width="35.84375" y="193.5" x="1142.078125" class="commit-label-bkg"/><text class="commit-label" y="205" x="1144.078125">Leaflet</text></g><g transform="translate(-41.0825, 36.647499999999994) rotate(-45, 1200, 0)"><rect height="15" width="82.375" y="13.5" x="1168.8125" class="commit-label-bkg"/><text class="commit-label" y="25" x="1170.8125">Geoloc audiences</text></g><g transform="translate(-32.615624999999994, 29.071875) rotate(-45, 1250, 180)"><rect height="15" width="60.09375" y="193.5" x="1229.953125" class="commit-label-bkg"/><text class="commit-label" y="205" x="1231.953125">notifications</text></g><g transform="translate(-36.92625, 32.928749999999994) rotate(-45, 1300, 0)"><rect height="15" width="71.4375" y="13.5" x="1274.28125" class="commit-label-bkg"/><text class="commit-label" y="25" x="1276.28125">CGrowth alerts</text></g><g transform="translate(-19.2740625, 17.1346875) rotate(-45, 1350, 270)"><rect height="15" width="24.984375" y="283.5" x="1347.5078125" class="commit-label-bkg"/><text class="commit-label" y="295" x="1349.5078125">2021</text></g><g transform="translate(-35.335, 31.505) rotate(-45, 1400, 180)"><rect height="15.05078125" width="67.25" y="193.5" x="1376.375" class="commit-label-bkg"/><text class="commit-label" y="205" x="1378.375">github actions</text></g><g transform="translate(-24.03, 21.39) rotate(-45, 1450, 0)"><rect height="15.05078125" width="37.5" y="13.5" x="1441.25" class="commit-label-bkg"/><text class="commit-label" y="25" x="1443.25">OneKey</text></g><g transform="translate(-36.9440625, 32.9446875) rotate(-45, 1500, 180)"><rect height="15" width="71.484375" y="193.5" x="1474.2578125" class="commit-label-bkg"/><text class="commit-label" y="205" x="1476.2578125">data validation</text></g><g transform="translate(-33.559687499999995, 29.9165625) rotate(-45, 1550, 180)"><rect height="15.05078125" width="62.578125" y="193.5" x="1528.7109375" class="commit-label-bkg"/><text class="commit-label" y="205" x="1530.7109375">strong typing</text></g><g transform="translate(-39.4675, 35.2025) rotate(-45, 1600, 90)"><rect height="15.05078125" width="78.125" y="103.5" x="1570.9375" class="commit-label-bkg"/><text class="commit-label" y="115" x="1572.9375">schema-to-types</text></g><g transform="translate(-35.3290625, 31.4996875) rotate(-45, 1650, 0)"><rect height="15" width="67.234375" y="13.5" x="1626.3828125" class="commit-label-bkg"/><text class="commit-label" y="25" x="1628.3828125">JSON schemas</text></g><g transform="translate(-19.2740625, 17.1346875) rotate(-45, 1750, 270)"><rect height="15" width="24.984375" y="283.5" x="1747.5078125" class="commit-label-bkg"/><text class="commit-label" y="295" x="1749.5078125">2022</text></g><g transform="translate(-28.607812499999998, 25.4859375) rotate(-45, 1800, 90)"><rect height="15.05078125" width="49.546875" y="103.5" x="1785.2265625" class="commit-label-bkg"/><text class="commit-label" y="115" x="1787.2265625">consulting</text></g><g transform="translate(-19.2740625, 17.1346875) rotate(-45, 1900, 270)"><rect height="15" width="24.984375" y="283.5" x="1897.5078125" class="commit-label-bkg"/><text class="commit-label" y="295" x="1899.5078125">2023</text></g><g transform="translate(-28.3703125, 25.2734375) rotate(-45, 1950, 180)"><rect height="15.05078125" width="48.921875" y="193.5" x="1935.5390625" class="commit-label-bkg"/><text class="commit-label" y="205" x="1937.5390625">open data</text></g><g transform="translate(-32.318749999999994, 28.80625) rotate(-45, 2000, 180)"><rect height="15" width="59.3125" y="193.5" x="1980.34375" class="commit-label-bkg"/><text class="commit-label" y="205" x="1982.34375">web crawler</text></g><g transform="translate(-42.2284375, 37.672812500000006) rotate(-45, 2050, 90)"><rect height="15.05078125" width="85.390625" y="103.5" x="2017.3046875" class="commit-label-bkg"/><text class="commit-label" y="115" x="2019.3046875">waterspot-catalog</text></g><g transform="translate(-36.35625, 32.41875) rotate(-45, 2150, 90)"><rect height="15.05078125" width="69.9375" y="103.5" x="2125.03125" class="commit-label-bkg"/><text class="commit-label" y="115" x="2127.03125">a-place-to-live</text></g><g transform="translate(-37.92375, 33.821250000000006) rotate(-45, 2250, 270)"><rect height="19" width="74.0625" y="283.5" x="2222.96875" class="commit-label-bkg"/><text class="commit-label" y="295" x="2224.96875">🏡 buy a house</text></g><g transform="translate(-26.1496875, 23.286562500000002) rotate(-45, 2300, 180)"><rect height="15.05078125" width="43.078125" y="193.5" x="2288.4609375" class="commit-label-bkg"/><text class="commit-label" y="205" x="2290.4609375">ImageKit</text></g><g transform="translate(-19.2740625, 17.1346875) rotate(-45, 2350, 270)"><rect height="15" width="24.984375" y="283.5" x="2347.5078125" class="commit-label-bkg"/><text class="commit-label" y="295" x="2349.5078125">2024</text></g><g transform="translate(-30.329687500000002, 27.026562499999997) rotate(-45, 2400, 180)"><rect height="15.05078125" width="54.078125" y="193.5" x="2382.9609375" class="commit-label-bkg"/><text class="commit-label" y="205" x="2384.9609375">open graph</text></g><g transform="translate(-47.2634375, 42.1778125) rotate(-45, 2450, 180)"><rect height="15.05078125" width="98.640625" y="193.5" x="2410.6796875" class="commit-label-bkg"/><text class="commit-label" y="205" x="2412.6796875">server side rendering</text></g><g transform="translate(-19.2740625, 17.1346875) rotate(-45, 2500, 270)"><rect height="15" width="24.984375" y="283.5" x="2497.5078125" class="commit-label-bkg"/><text class="commit-label" y="295" x="2499.5078125">2025</text></g><g transform="translate(-17.843125, 15.854375000000001) rotate(-45, 2550, 90)"><rect height="15" width="21.21875" y="103.5" x="2549.390625" class="commit-label-bkg"/><text class="commit-label" y="115" x="2551.390625">talk</text></g><g transform="translate(-26.2328125, 23.3609375) rotate(-45, 2600, 90)"><rect height="15.05078125" width="43.296875" y="103.5" x="2588.3515625" class="commit-label-bkg"/><text class="commit-label" y="115" x="2590.3515625">reveal.js</text></g><g transform="translate(-23.2640625, 20.7046875) rotate(-45, 2650, 90)"><rect height="15" width="35.484375" y="103.5" x="2642.2578125" class="commit-label-bkg"/><text class="commit-label" y="115" x="2644.2578125">emmet</text></g><g transform="translate(-30.685937499999998, 27.3453125) rotate(-45, 2700, 90)"><rect height="15.05078125" width="55.015625" y="103.5" x="2682.4921875" class="commit-label-bkg"/><text class="commit-label" y="115" x="2684.4921875">mermaid.js</text></g><g transform="translate(-17.7659375, 15.7853125) rotate(-45, 2750, 90)"><rect height="15" width="21.015625" y="103.5" x="2749.4921875" class="commit-label-bkg"/><text class="commit-label" y="115" x="2751.4921875">sozi</text></g><g transform="translate(-31.000625, 27.626875) rotate(-45, 2800, 0)"><rect height="19" width="55.84375" y="13.5" x="2782.078125" class="commit-label-bkg"/><text class="commit-label" y="25" x="2784.078125">🎤 futurise</text></g></g></svg>