<svg width="832" height="122" xmlns="http://www.w3.org/2000/svg" xmlns:xlink="http://www.w3.org/1999/xlink" xml:space="preserve" overflow="hidden"><defs><clipPath id="clip0"><rect x="225" y="283" width="830" height="121"/></clipPath></defs><g transform="translate(-224 -282)"><g><g clip-path="url(#clip0)"><g><g><path d="M0 117.833 0 29.0274C0 12.8062 7.85448 2.56124 27.3199 2.56124L85.3903 2.56124 85.3903 31.5887 31.5887 31.5887 31.5887 53.9569 81.4475 53.9569 81.4475 82.9843 31.5887 82.9843 31.5887 117.817 0 117.817Z" fill="#F8F9FB" fill-rule="nonzero" fill-opacity="1" transform="matrix(1.00008 0 0 1 225 283.218)"/><path d="M100.758 65.7541 100.758 31.6042 132.346 31.6042 132.346 64.9003C132.346 82.6583 139.176 90.0005 153.178 90.0005 167.179 90.0005 174.18 82.6583 174.18 64.9003L174.18 31.6042 205.769 31.6042 205.769 65.7541C205.769 99.904 189.206 119.882 153.162 119.882 117.119 119.882 100.742 99.904 100.742 65.7541Z" fill="#F8F9FB" fill-rule="nonzero" fill-opacity="1" transform="matrix(1.00008 0 0 1 225 283.218)"/><path d="M316.275 31.5887 283.662 31.5887 283.662 117.833 252.073 117.833 252.073 31.5887 219.46 31.5887 219.46 2.56124 316.29 2.56124 316.29 31.5887Z" fill="#F8F9FB" fill-rule="nonzero" fill-opacity="1" transform="matrix(1.00008 0 0 1 225 283.218)"/><path d="M329.935 65.7541 329.935 31.6042 361.523 31.6042 361.523 64.9003C361.523 82.6583 368.353 90.0005 382.355 90.0005 396.356 90.0005 403.357 82.6583 403.357 64.9003L403.357 31.6042 434.946 31.6042 434.946 65.7541C434.946 99.904 418.383 119.882 382.339 119.882 346.296 119.882 329.919 99.904 329.919 65.7541Z" fill="#F8F9FB" fill-rule="nonzero" fill-opacity="1" transform="matrix(1.00008 0 0 1 225 283.218)"/><path d="M611.19 31.5887 611.19 117.833 579.602 117.833 579.602 31.5887 611.19 31.5887Z" fill="#F8F9FB" fill-rule="nonzero" fill-opacity="1" transform="matrix(1.00008 0 0 1 225 283.218)"/><path d="M631.168 94.44 657.463 81.2923C660.708 88.293 667.196 91.5373 677.953 91.5373 686.32 91.5373 692.638 88.976 692.638 83.512 692.638 76.6821 685.808 75.6576 675.392 74.1208 658.146 71.5596 632.875 64.9003 632.875 37.4097 632.875 16.2367 651.829 0.0155227 677.441 0.0155227 697.589 0.0155227 714.664 9.06525 722.519 26.1402L696.223 39.2879C692.979 33.6532 686.832 29.0429 676.075 29.0429 668.562 29.0429 664.464 31.4334 664.464 36.2144 664.464 42.7029 671.977 44.7519 683.247 46.4594 700.321 49.0206 724.226 55.5091 724.226 83.1705 724.226 104.343 703.566 120.565 677.953 120.565 656.097 120.565 639.022 111.515 631.168 94.44Z" fill="#F8F9FB" fill-rule="nonzero" fill-opacity="1" transform="matrix(1.00008 0 0 1 225 283.218)"/><path d="M770.003 117.833C750.537 117.833 742.683 107.588 742.683 91.3665L742.683 29.0274C742.683 12.8062 750.537 2.56124 770.003 2.56124L829.098 2.56124 829.098 30.7349 774.271 30.7349 774.271 46.1024 825.17 46.1024 825.17 74.276 774.271 74.276 774.271 89.6435 829.951 89.6435 829.951 117.817 770.003 117.817Z" fill="#F8F9FB" fill-rule="nonzero" fill-opacity="1" transform="matrix(1.00008 0 0 1 225 283.218)"/><path d="M557.218 109.916 536.837 79.6159C535.3 77.2875 535.874 74.1519 538.203 72.6151L538.265 72.6151C547.609 66.344 553.477 55.1366 553.477 42.2062 553.477 20.0553 534.974 2.56124 512.124 2.56124L463.088 2.56124C461.21 2.56124 459.735 4.0359 459.735 5.91414L459.735 27.382C459.735 28.2979 460.418 28.9809 461.334 29.0274 477.912 29.9433 491.293 44.2397 491.293 60.585 491.293 76.9304 477.788 91.0561 461.334 91.9719 460.48 92.034 459.735 92.7636 459.735 93.6173L459.735 114.464C459.735 116.343 461.226 117.833 463.088 117.833L491.572 117.833C493.451 117.833 494.941 116.358 494.941 114.464L494.941 104.437C494.941 97.3117 501.088 95.5576 505.822 101.13L517.79 116.11C518.877 117.196 520.351 117.817 521.842 117.817L553.058 117.817C555.852 117.817 558.134 115.597 558.134 112.803 558.196 111.717 557.854 110.754 557.28 109.901Z" fill="#F8F9FB" fill-rule="nonzero" fill-opacity="1" transform="matrix(1.00008 0 0 1 225 283.218)"/></g></g></g></g></g></svg>