<svg width="90" height="14" xmlns="http://www.w3.org/2000/svg" xmlns:xlink="http://www.w3.org/1999/xlink" xml:space="preserve" overflow="hidden"><defs><clipPath id="clip0"><rect x="114" y="678" width="90" height="14"/></clipPath><clipPath id="clip1"><rect x="114" y="678" width="90" height="14"/></clipPath><clipPath id="clip2"><rect x="115" y="679" width="89" height="13"/></clipPath><clipPath id="clip3"><rect x="115" y="679" width="89" height="13"/></clipPath><clipPath id="clip4"><rect x="115" y="679" width="89" height="13"/></clipPath></defs><g clip-path="url(#clip0)" transform="translate(-114 -678)"><g clip-path="url(#clip1)"><g clip-path="url(#clip2)"><g clip-path="url(#clip3)"><g clip-path="url(#clip4)"><path d="M0 12.6361 0 3.11282C0 1.3733 0.842292 0.274661 2.92971 0.274661L9.15702 0.274661 9.15702 3.38748 3.38748 3.38748 3.38748 5.78618 8.73421 5.78618 8.73421 8.899 3.38748 8.899 3.38748 12.6344 0 12.6344Z" fill="#25292C" fill-rule="nonzero" fill-opacity="1" transform="matrix(1 0 0 1.00187 115 679.023)"/><path d="M10.805 7.05129 10.805 3.38914 14.1925 3.38914 14.1925 6.95973C14.1925 8.86404 14.9249 9.6514 16.4264 9.6514 17.9278 9.6514 18.6786 8.86404 18.6786 6.95973L18.6786 3.38914 22.0661 3.38914 22.0661 7.05129C22.0661 10.7134 20.2899 12.8558 16.4247 12.8558 12.5595 12.8558 10.8033 10.7134 10.8033 7.05129Z" fill="#25292C" fill-rule="nonzero" fill-opacity="1" transform="matrix(1 0 0 1.00187 115 679.023)"/><path d="M33.9164 3.38748 30.4191 3.38748 30.4191 12.6361 27.0316 12.6361 27.0316 3.38748 23.5342 3.38748 23.5342 0.274661 33.9181 0.274661 33.9181 3.38748Z" fill="#25292C" fill-rule="nonzero" fill-opacity="1" transform="matrix(1 0 0 1.00187 115 679.023)"/><path d="M35.3813 7.05129 35.3813 3.38914 38.7687 3.38914 38.7687 6.95973C38.7687 8.86404 39.5012 9.6514 41.0027 9.6514 42.5041 9.6514 43.2549 8.86404 43.2549 6.95973L43.2549 3.38914 46.6424 3.38914 46.6424 7.05129C46.6424 10.7134 44.8662 12.8558 41.001 12.8558 37.1358 12.8558 35.3796 10.7134 35.3796 7.05129Z" fill="#25292C" fill-rule="nonzero" fill-opacity="1" transform="matrix(1 0 0 1.00187 115 679.023)"/><path d="M65.5423 3.38748 65.5423 12.6361 62.1549 12.6361 62.1549 3.38748 65.5423 3.38748Z" fill="#25292C" fill-rule="nonzero" fill-opacity="1" transform="matrix(1 0 0 1.00187 115 679.023)"/><path d="M67.6847 10.1275 70.5045 8.71756C70.8524 9.4683 71.5482 9.8162 72.7018 9.8162 73.599 9.8162 74.2765 9.54154 74.2765 8.9556 74.2765 8.22317 73.5441 8.11331 72.4272 7.94851 70.5778 7.67385 67.8678 6.95973 67.8678 4.01171 67.8678 1.74118 69.9003 0.00166461 72.6469 0.00166461 74.8075 0.00166461 76.6386 0.972132 77.4809 2.8032L74.6611 4.21313C74.3132 3.60887 73.654 3.11448 72.5004 3.11448 71.6947 3.11448 71.2553 3.37083 71.2553 3.88353 71.2553 4.57934 72.0609 4.79907 73.2694 4.98218 75.1005 5.25684 77.664 5.95264 77.664 8.91898 77.664 11.1895 75.4484 12.929 72.7018 12.929 70.358 12.929 68.527 11.9586 67.6847 10.1275Z" fill="#25292C" fill-rule="nonzero" fill-opacity="1" transform="matrix(1 0 0 1.00187 115 679.023)"/><path d="M82.5729 12.6361C80.4855 12.6361 79.6432 11.5374 79.6432 9.79789L79.6432 3.11282C79.6432 1.3733 80.4855 0.274661 82.5729 0.274661L88.9101 0.274661 88.9101 3.29593 83.0307 3.29593 83.0307 4.94389 88.489 4.94389 88.489 7.96516 83.0307 7.96516 83.0307 9.61312 89.0017 9.61312 89.0017 12.6344 82.5729 12.6344Z" fill="#25292C" fill-rule="nonzero" fill-opacity="1" transform="matrix(1 0 0 1.00187 115 679.023)"/><path d="M59.7545 11.7871 57.5688 8.53778C57.4041 8.28809 57.4656 7.95184 57.7153 7.78704L57.722 7.78704C58.7241 7.11454 59.3533 5.91269 59.3533 4.52607 59.3533 2.15068 57.3691 0.274661 54.9188 0.274661L49.6603 0.274661C49.4589 0.274661 49.3007 0.432798 49.3007 0.634216L49.3007 2.93637C49.3007 3.03458 49.374 3.10783 49.4722 3.11282 51.25 3.21103 52.6849 4.74414 52.6849 6.49697 52.6849 8.2498 51.2367 9.7646 49.4722 9.86281 49.3806 9.86947 49.3007 9.94771 49.3007 10.0393L49.3007 12.2748C49.3007 12.4762 49.4605 12.6361 49.6603 12.6361L52.7148 12.6361C52.9163 12.6361 53.0761 12.4779 53.0761 12.2748L53.0761 11.1995C53.0761 10.4354 53.7353 10.2473 54.243 10.8449L55.5264 12.4513C55.6429 12.5678 55.801 12.6344 55.9608 12.6344L59.3084 12.6344C59.608 12.6344 59.8527 12.3963 59.8527 12.0967 59.8594 11.9802 59.8227 11.877 59.7611 11.7854Z" fill="#25292C" fill-rule="nonzero" fill-opacity="1" transform="matrix(1 0 0 1.00187 115 679.023)"/></g></g></g></g></g></svg>